<svg xmlns="http://www.w3.org/2000/svg" viewBox="0 0 250.16 224.43"><defs><style>.cls-1{fill:#fff;}</style></defs><title>LOGORecurso 13</title><g id="Capa_2" data-name="Capa 2"><g id="Capa_1-2" data-name="Capa 1"><path class="cls-1" d="M14.65,117.91l-1.12,3.37s4.27,30.11,7.19,39.1l11.68-9.66s5.94,7.19,9.82,9.66l10.18-18.2s6.07,4.72,11.47,5.61l7-16.85,5.62,6.29,1.35-3.37,6.07,22L76,153.19l1.35,7.19H75.1l.68,2.7a25.78,25.78,0,0,0-8.92-5s1.2,19.18,0,25.47L45,175.81l4.64,13L35.7,185s5,21.72,30.86,39.48c0,0,20.23-1.35,32.81-11.91a84.38,84.38,0,0,1,35.73-29.89l10.26-12.36a16,16,0,0,1,13.12,5.62s8.5,8.46,23,4.27A33.72,33.72,0,0,0,194,170.27s8.57-12.24,17.34-3.94c0,0,2.58-2.24.56-7.61l27.86-2.28,1.24-.67,8.2-6.4,1-1.42-2.36-14.31-1.12-1.24-8-8.88-2.69-1-14.4,3.71s1.29-4.72-4.93-8.31c0,0,3.15-1.13,4.93-9,0,0,5.86-7.87,14.77,4.25,0,0,6.15-23.4-17.13-24.62l.91-7.6-.22-2.51-8.43-7.65-2.47-.9-2.5.62a17.32,17.32,0,0,0-3.62-16.18s-2.45,9.92-9.5,4.92c0,0-5.73-7.64-16.6-3.72,0,0,.42-5.72-6.72-11.11,0,0-1.17,5.88-5.55,6.55,0,0,.44-11.38-19.22-22.17,0,0-16-6.85-34.05-3.82L92.18,1.05a3.21,3.21,0,0,0-4.72,0l-13,29.77L67.69,33,43.86,15.21s-4.6-3-6.4,1.79l-.79,29.22a43.25,43.25,0,0,0-6.85,5.05L6.39,48.51s-9.49-1.17-5.34,7.9L14.13,78s-6.45,16.33-1.05,37.9Z"/><path d="M243.62,134.39l-8.09-7.14L212,132c10.06-5.67,1.77-11.43,1.77-11.43.9,5.69-7.19,5.54-7.19,5.54a19.82,19.82,0,0,0-10.51,3.41l2-4.24c6.87-.65,16.06-4.15,19.85-17.38,0,0,5.07-11.87,16.31-1.16,0,0-3.36-19.1-21.11-13l1.43-3,.53-10.35-7.2-6.1-26.51,5.35L179,81.7l.62-4.64-2-.06c3.36-3,10-2.13,10-2.13,18.81-.52,15.79-14.75,15.79-14.75-2.24,8.54-11.69,3.14-11.69,3.14-8.09-9.44-22.29,0-22.29,0C174.46,60.57,171.4,52,171.4,52c-2.61,4.24-7.89,5.07-10.58,5.2.44-17.62-18-24-18-24-10.93-2.89-17.62-4.66-34.36-3.13l-17.72-23L80,33.32a49.26,49.26,0,0,1,10.67-.65c-5.84,1-11.45,2.55-11.45,2.55-4.87,1.26-9.3,2.59-13.19,3.88L42.23,20.42V47.69A36.43,36.43,0,0,1,53.5,44C47.32,46.45,42.26,49,42.26,49a50.51,50.51,0,0,0-11,8.24L5.66,53.4,18.45,75.22C19.68,72.07,24,67.8,24,67.8a63.08,63.08,0,0,0-4.52,8.89,63.36,63.36,0,0,0-3,21.46c-.4,3.79.83,10.67,1.82,18.28l3.2,2.09,1.73-1-2.47,3.29-1.75.78h0c2.17,14.84,5.31,30.39,5.31,30.39l10-9.53A69.1,69.1,0,0,0,41,152.56L51.37,133.5c3.38,5.08,9.53,8.69,9.53,8.69l8.68-19.7,5.72,7.62c.38-3.69-.3-11.83-.41-13.15l0,0h0v-.14l0,.11,3.94-4a6.37,6.37,0,0,0-.83-6l1.83-3.79v3.62s3,3.83,1.16,7.48l-1.75,2.81L90.15,164l-9.56-4.19,3.81,10L80,165.48v9.74a48.22,48.22,0,0,0-8.47-10.16c1.27,7.2,0,25.2,0,25.2-2.54-1.06-20.11-7.63-20.11-7.63l5.08,12.92c-1.48-.63-14.4-5.08-14.4-5.08,10.16,17.79,25.83,28.8,25.83,28.8C81,218.42,95,209.53,95,209.53a106.78,106.78,0,0,1,35.85-30.9l11-13.45c5.58-.88,13.49-.64,19.63,5.54,0,0,13.85,12.64,29.46-4,0,0,9.63-11.59,17.64-6a11.58,11.58,0,0,0-7-6l21.7-2.65-10.68,3.23L239.3,152l6.56-5.63Zm-62.81,25.5A8.29,8.29,0,0,1,174,159L184,158C183,158.59,181.93,159.19,180.81,159.89Zm5.87-3.18-.82-.09,1.46-.18Z"/><path class="cls-1" d="M54.75,94.23c0-.24,0-.43.1-.52.3-.22,1,.26,1.66,1.08s.88,1.67.58,1.89a.52.52,0,0,1-.53,0h0c-1-.11-.54.93-.53.94.85.58,1.69.74,2.21.35.82-.62.53-2.39-.65-4s-2.8-2.34-3.62-1.72c-.54.4-.6,1.3-.25,2.3C54.55,95.21,54.75,94.23,54.75,94.23Z"/><path class="cls-1" d="M59.81,96.29s-.76-3.78-4-4.75c0,0-.51-.44.41-1,0,0,4.4,1.12,4.49,5.67A.66.66,0,0,1,59.81,96.29Z"/><polygon points="42.23 49.04 42.27 49.02 42.23 49.02 42.23 49.04"/><path class="cls-1" d="M31,116.21l22.36-17s2.91,12.73-13.75,18.54c0,0,.57,1.22,5.85-.09C45.41,117.62,38.73,123.14,31,116.21Z"/><path class="cls-1" d="M116.83,104.61a1.58,1.58,0,0,0,.31-.7,2.28,2.28,0,0,0,0-.64,1.18,1.18,0,0,1,.29-1l-.37.06.28-.63.05-.07v.06l-.07-.38a.44.44,0,0,1,.13-.21c.06,0,0-.12,0-.19a4,4,0,0,1,0-1.85,10,10,0,0,0,.25-1.95,2.05,2.05,0,0,0,1.45-.58.45.45,0,0,1,.23-.17,1.19,1.19,0,0,0,1-.07,1,1,0,0,1,.94,0,1.15,1.15,0,0,0,.62-.17,1.75,1.75,0,0,1,.74-.41,1.21,1.21,0,0,1,.53.26s.08.06.08.08,0,0,.14.08a2.79,2.79,0,0,0,.62-.56l.48.14a.57.57,0,0,0,.49-.11l.19,0a5.63,5.63,0,0,0,1.64-.28q.54-.22,1.56-.72a4.52,4.52,0,0,1,1.53-.52l1.51-.26c.5-.09,1-.19,1.5-.32a6,6,0,0,1,2.56-.18h0a2.9,2.9,0,0,0,.51,0,.71.71,0,0,1,.46,0,4.83,4.83,0,0,1,.86.27,5.43,5.43,0,0,0,.86.28,1.93,1.93,0,0,1,1.08.65,2,2,0,0,1,.33,1.18,11.61,11.61,0,0,1,0,1.45c0,.5-.06,1-.1,1.47a1.62,1.62,0,0,0-.08.5c0,.15-.13.3-.41.43-.05,0-.07,0-.08.11a.33.33,0,0,1-.07.17l0,.25a.21.21,0,0,1,0,.2c-.3.27-.41.52-.32.74a.82.82,0,0,1-.08.69,5.21,5.21,0,0,0-.31.64,2.27,2.27,0,0,1-.39.58,2.37,2.37,0,0,0-.73,1.81.89.89,0,0,1-.09.6c-.09.23-.17.36-.25.4a2.62,2.62,0,0,1-.64.07,3.46,3.46,0,0,1-.31.64,1.93,1.93,0,0,0-.25.63,3.28,3.28,0,0,1-.2.52,1.53,1.53,0,0,1-.47.5,1,1,0,0,0-.16.35,3.47,3.47,0,0,1-.16.41,2.56,2.56,0,0,0-.26.95,1.49,1.49,0,0,1-.39.91,2.68,2.68,0,0,0-.23.4.36.36,0,0,1-.45.17l-.31.44a.55.55,0,0,0-.14.35,1.54,1.54,0,0,1-.28,1.18c-.26.37-.51.75-.75,1.13a6.16,6.16,0,0,1-.33.55l-.39.55a1.63,1.63,0,0,0-.44.46.74.74,0,0,0,.08.44l-1.32,1.39c-.66.68-1.31,1.28-1.95,1.82-.27.22-.53.42-.78.59l-.78.52c-.54.4-1.1.77-1.69,1.13s-1.17.74-1.74,1.14l-.1-.56a2.59,2.59,0,0,0-.54-.11,2.06,2.06,0,0,1-.53-.1l.07,0a3.85,3.85,0,0,0-.44.47.38.38,0,0,1-.11.11.65.65,0,0,0-.11.12.29.29,0,0,1-.11.11.65.65,0,0,0-.11.12h-.06a.11.11,0,0,1,0,.1.16.16,0,0,0,0,.1c-.17.25-.36.5-.55.77a2.17,2.17,0,0,0-.36.74,11.17,11.17,0,0,0-.29,1.51c-.06.51-.14,1-.23,1.5l-.06.78c-.25-.17-.28-.43-.1-.79a.82.82,0,0,0-.06-.93c-.06.19-.15.42-.27.7,0-.27.06-.62.08-1l.44-.08a2.41,2.41,0,0,1,.31-1,.78.78,0,0,0-.13-.95l-.06.4c0,.13,0,.27-.07.4a.41.41,0,0,0,0-.2.68.68,0,0,1,0-.2,1,1,0,0,0,0-.39.54.54,0,0,0-.25-.35,9.51,9.51,0,0,1-.25,1,3.28,3.28,0,0,0-.12,1,4,4,0,0,1-.12,1.38c-.12.45-.22.92-.31,1.41a.11.11,0,0,1-.1,0,.15.15,0,0,0-.1,0l-.19,0s0,.07,0,.06,0,0,0,.06v.06a2,2,0,0,0,.42-.2c0,.31-.08.61-.14.9a2.37,2.37,0,0,1-.4.88l-.19.42a.67.67,0,0,0-.07.33,1.34,1.34,0,0,1-.34.84,6.86,6.86,0,0,1-.77.65.46.46,0,0,0-.07.14.46.46,0,0,1-.07.14c-.1-.07-.15-.12-.16-.17a2.81,2.81,0,0,1,.23-.55l.39-.72-.27.31-.1.15-.19,0c0-.27.07-.53.09-.8s0-.52.09-.79c-.22,0-.37,0-.43.11s-.13.25-.2.39c0,.48-.1,1-.16,1.48s-.12,1-.16,1.55a.58.58,0,0,1,.58-.23.53.53,0,0,0,.57-.23q.27.09.3.21c0,.18,0,.34,0,.5s0,.32,0,.49a2.68,2.68,0,0,0-.11.5,5.78,5.78,0,0,1-.1.57,3.1,3.1,0,0,0-.67.25c0,.35,0,.52.12.52a2.8,2.8,0,0,0,.88-.37.44.44,0,0,0,.17-.52c-.07-.18,0-.33.31-.47l0,.28a3.5,3.5,0,0,1,0,.49c.13-.28.24-.52.34-.71s.19-.38.29-.57a2,2,0,0,1,0,.69c0,.24-.09.48-.13.7s0,.2-.1.21a.83.83,0,0,0-.55.55c0,.22-.11.49-.19.81-.13-.5-.41-.65-.85-.44l-.37,1.23c-.36-.07-.5-.24-.41-.51s.07-.53.09-.8,0-.52.09-.79a1.33,1.33,0,0,0-.26-.73,2.64,2.64,0,0,0-.43,1.27,9.88,9.88,0,0,1-.11,1.22l-.34,2.58a11.41,11.41,0,0,1-.23,1.3,2.56,2.56,0,0,0,0,1.26.64.64,0,0,0,.49-.54,2.15,2.15,0,0,0,.06-.59,3.37,3.37,0,0,1,.06-.59c.06-.44.12-.88.2-1.3s.15-.83.21-1.23a1.44,1.44,0,0,1,.35.13c0,.56,0,1.12.09,1.67s.09,1.13.1,1.73a.82.82,0,0,1-.14.67.24.24,0,0,0,.06.38c.1.07.13.24.09.5a3.16,3.16,0,0,1-.3.9v.06a2.27,2.27,0,0,1-.39.16,2.09,2.09,0,0,0-.4.17.47.47,0,0,1-.1-.44c0-.18-.11-.28-.41-.32a3.65,3.65,0,0,0-.27,1.31c0,.41,0,.81,0,1.19a3.27,3.27,0,0,1,0,.71.66.66,0,0,0,.4.64c0-.26.07-.52.1-.76a1.24,1.24,0,0,1,.48-.76.16.16,0,0,1,0,.1.11.11,0,0,0,0,.1.11.11,0,0,1,0-.1.16.16,0,0,0,0-.1.86.86,0,0,0,.27,0l.27.05a2.53,2.53,0,0,1-.24.53c-.1.17,0,.3.14.4l.05-.08a4.09,4.09,0,0,1,.49-.18,2.52,2.52,0,0,0,.54-.25,5.12,5.12,0,0,0-.11.7c0,.24-.06.49-.1.76a1.48,1.48,0,0,0-.4-.06,5.06,5.06,0,0,1-1.51.64,3.44,3.44,0,0,0-1.52.91,2,2,0,0,1-.85.53,2.25,2.25,0,0,1-.92.1.43.43,0,0,1-.44-.25,2.13,2.13,0,0,1-.15-1.08,5.55,5.55,0,0,1,.28-1.21c0-.31,0-.5-.1-.57a.69.69,0,0,1-.09-.34,2.77,2.77,0,0,1,0-.42,4.46,4.46,0,0,0,.15-1.78,2.48,2.48,0,0,1,0-.9c.05-.31.09-.65.12-1v-1.16l-.06-.38.74-4.79a4.4,4.4,0,0,1,.21-.81,1.38,1.38,0,0,0,.09-.79,3.11,3.11,0,0,1,.06-1.95,12.2,12.2,0,0,0,.49-2l.13-.41a4.63,4.63,0,0,1,0-1.29c.06-.44.11-.9.15-1.39a3.94,3.94,0,0,0,.14-.51,2.51,2.51,0,0,0,.08-.49,4.06,4.06,0,0,0,.08-.7,3.17,3.17,0,0,1,.07-.69c0-.22.11-.46.17-.71a3.07,3.07,0,0,0,.11-.7c0-.21,0-.44,0-.68a1.2,1.2,0,0,1,.27-.72.87.87,0,0,0,.16-.39,2.26,2.26,0,0,0,0-.35,1.19,1.19,0,0,1,.08-.66.71.71,0,0,0,.15-.67.69.69,0,0,1,.2-.69.2.2,0,0,0,0-.26.47.47,0,0,1-.17-.65,1.17,1.17,0,0,0,.14-.7c0-.17.11-.36.41-.59s.39-.5.15-.67a.75.75,0,0,1-.22-.87c.07-.36.16-.7.25-1a8.77,8.77,0,0,0,.25-1c0-.18.11-.35.17-.51a.47.47,0,0,0,0-.42.75.75,0,0,1,0-.59,5.41,5.41,0,0,1,.36-.58,2.49,2.49,0,0,0,.34-.67,2.72,2.72,0,0,0,.08-.63,2.43,2.43,0,0,0-.17-.85,1,1,0,0,1,.13-.89c.14-.2.27-.37.4-.53a1.21,1.21,0,0,0,.26-.56c.1-.4.06-.68-.14-.82s-.19-.2-.12-.3a.86.86,0,0,0,.33-.74l-.12-.72a1,1,0,0,1,.47.11l.28-.63a3,3,0,0,0,.25-.82l-.35-.13h.07Zm-3,33.28s-.08-.06-.08-.08,0-.05-.08-.08l-.16.22a.26.26,0,0,0,.1.17.57.57,0,0,1,.11-.11A.65.65,0,0,0,113.78,137.89Zm1,3.06a.26.26,0,0,1,0-.2l-.13,0a.32.32,0,0,0,0,.2l.19,0Zm-.75-4.4H114v.06h.07Zm1.37,2a.27.27,0,0,1,0,.19h.06Zm1.43.4-.66,1.86a5.1,5.1,0,0,1,.08-1.08,11.11,11.11,0,0,0,.12-1.16l.23.16.22.16Zm.16.17a4.35,4.35,0,0,1,.2-.72c.08-.25.15-.49.2-.71l.19,0-.28,1.79q0,.53-.09,1c0,.31-.06.63-.09,1s-.06.61-.07.89a2.14,2.14,0,0,1-.33.93v-.78a3.46,3.46,0,0,1,.06-.78l.14-2.55Zm.52,5.34a5,5,0,0,1,.14-.89.86.86,0,0,0-.08-.67,1.54,1.54,0,0,1-.21-1,6.58,6.58,0,0,0,0-1.08.86.86,0,0,0,.07-.33h.13a.22.22,0,0,1,.09.17c0,.61,0,1.2,0,1.79a15.56,15.56,0,0,1-.25,1.95Zm-1.45-9.26,0,.07.11-.08Zm-.38-4.86,0-.19-.16.22,0,.19a.81.81,0,0,0,.22-.23Zm.49.56-.19,1.2.19,0,.18-1.2Zm1.26,8.92a.57.57,0,0,1,0-.65,6.3,6.3,0,0,1,.48-.6,3,3,0,0,1-.55,1.32Zm.61-2.11a.33.33,0,0,0,0-.12.5.5,0,0,1-.07-.19,1.48,1.48,0,0,0-.15.25c0,.07-.06.16-.09.25a6.31,6.31,0,0,1,.16-1c.22,0,.34.11.35.2a2,2,0,0,1-.14.67Zm-.28-2-.19,0a.84.84,0,0,0-.06.4l.19,0A.83.83,0,0,1,117.8,135.65Zm-.73-4.66c0,.13,0,.26-.07.4l-.06.39c.11-.14.21-.29.32-.44s0-.24-.18-.29Zm-.74-4.34h0c.52-1,.54-1.61,0-2a10.7,10.7,0,0,0-.25,1.92l.31,0Zm1.11,6.93h.07a.2.2,0,0,0,0,.19.2.2,0,0,1,0-.19Zm.1-7c.26-.26.35-.48.28-.67a.93.93,0,0,1,0-.6.14.14,0,0,0-.08-.09.1.1,0,0,1-.08-.08l-.19,0a1.27,1.27,0,0,0,0,.39,3.49,3.49,0,0,1,0,.51l-.26-.18-.26-.18c0,.17,0,.39-.08.66l.44-.08a.72.72,0,0,1,.13.37Zm0,2.53.09-.6-.19,0-.09.6Zm.59,1.58a.13.13,0,0,0,0-.09.13.13,0,0,1,0-.09c0-.27.09-.54.15-.83a8.46,8.46,0,0,0,.13-1,2.63,2.63,0,0,1-.13,1.9Zm-.34-3.51a.29.29,0,0,1-.09.18.11.11,0,0,0-.05.11.38.38,0,0,0,.16.17l.15-.22s-.08-.12-.23-.22Zm.51,3.35a.41.41,0,0,0,0-.2.59.59,0,0,1,0-.2l.19,0a.41.41,0,0,0,0,.2.41.41,0,0,1,0,.2Zm.42-1.37-.06.08h-.06Zm-.43-4.39c-.08,0-.12,0-.12.08l0,.19a1,1,0,0,1,.22-.23c-.1-.07-.16-.12-.16-.17ZM117,105.94l-.63.11a4.23,4.23,0,0,1,0-.63.87.87,0,0,1,.46-.56h-.07a2.43,2.43,0,0,0,0,.48,2,2,0,0,1,0,.49Zm1.47,8.62-.07,0,.07,0a.41.41,0,0,0,0,.2.41.41,0,0,1,0,.2.7.7,0,0,0,.12-.22,1.76,1.76,0,0,1,.13-.21Zm2.18,8.24-.18,0a.15.15,0,0,1,0,.1.16.16,0,0,0,0,.1l.11-.12A.29.29,0,0,0,120.65,122.8Zm.17-.16-.19,0,0,.19Zm-1-6.75a4.74,4.74,0,0,0,.12-.8l-.19,0a4.74,4.74,0,0,1-.12.8Zm1,6.56a.3.3,0,0,1,0,.2h.06a.22.22,0,0,0,0-.2Zm-1.2-7.76.11-.15-.13,0s0,.06,0,.07-.06,0,0,.07,0,.06.13,0Zm7.76-3.85a.16.16,0,0,1,0-.1.16.16,0,0,0,0-.1.16.16,0,0,1,0,.1.16.16,0,0,0,0,.1l-.38.07a4.57,4.57,0,0,1,.71-1.16,3.4,3.4,0,0,0,.72-.9q.27-.5.51-1c.16-.38.29-.72.41-1s.23-.67.34-1a1.93,1.93,0,0,1,.25-.63.51.51,0,0,0,0-.58,2.12,2.12,0,0,0,.55-.55c0-.09,0-.23-.14-.43a4.58,4.58,0,0,1,.35-.42.8.8,0,0,0,.24-.33,7.24,7.24,0,0,1,.28-1.4,2,2,0,0,0,0-1.29,3.5,3.5,0,0,1,.07-1.51.91.91,0,0,1-.66.12.64.64,0,0,0-.63.3,1,1,0,0,0-.86.31c-.21.23-.41.47-.59.71l-.79.82a2.88,2.88,0,0,1-.91.57,4.65,4.65,0,0,1-.62.34,6.25,6.25,0,0,0-.63.33,5.1,5.1,0,0,1-.15,1c0,.17,0,.35,0,.52a1.41,1.41,0,0,1-.11.48,3.08,3.08,0,0,0-.35.83c-.06.27-.11.54-.15.8a5.53,5.53,0,0,0-.11,1.06,3.1,3.1,0,0,1-.24,1.08,4.65,4.65,0,0,0-.37,1.23,7.18,7.18,0,0,1-.31,1.21c-.06.14-.13.27-.19.39a1.11,1.11,0,0,1-.4.36,1.4,1.4,0,0,0-.3.51,6.09,6.09,0,0,1-.18.8,5.23,5.23,0,0,0-.19.81.42.42,0,0,0,0,.29,2.05,2.05,0,0,1,.08.28,1.21,1.21,0,0,0,.08.28.41.41,0,0,1,0,.29,1.87,1.87,0,0,1-.09.59c0,.19-.1.39-.15.61,0,.05-.07.08-.09.08a.19.19,0,0,0-.08.08.65.65,0,0,0-.07-.21,1,1,0,0,1-.07-.22,5.89,5.89,0,0,0-.41,1.17c-.12.45-.21.91-.29,1.38a12.79,12.79,0,0,0-.13,1.32,6.07,6.07,0,0,0,0,.93.54.54,0,0,1,.13-.22s.08-.1.07-.14c-.13-.24,0-.45.28-.63a.73.73,0,0,0,.28-.24c.18-.25.35-.5.52-.77s.34-.52.52-.77.49-.66.74-1a5,5,0,0,1,1-.88l-.08-.5a5.5,5.5,0,0,0,.76-1,10.51,10.51,0,0,0,.56-1.07,1.6,1.6,0,0,1,.24-.49l.31-.44.47-.67.38-.06Zm-4.72.81.19,0a.43.43,0,0,0,0-.2,1,1,0,0,1,0-.2l-.19,0a1.06,1.06,0,0,0,0,.2A.41.41,0,0,1,122.63,111.65Zm8.42,3.42h0Zm-1.5-10.69a.32.32,0,0,1,0-.2Zm4.35,5-.18,0h.06Zm1.56-1.5a.12.12,0,0,1,0-.1.15.15,0,0,0,0-.1.15.15,0,0,1,0,.1A.12.12,0,0,0,135.46,107.9Zm4.39-12.21h.06l0,.08Z"/><path class="cls-1" d="M160.1,138.46a9.38,9.38,0,0,0,.12,1,9.92,9.92,0,0,1,.12,1.11l-.42.53a9.15,9.15,0,0,0-.75.58L159,142a.34.34,0,0,1-.2.13,8.94,8.94,0,0,0-1.57.85,3,3,0,0,1-1.63.54,1.37,1.37,0,0,0-.94.55,3,3,0,0,1-.61.62,8.56,8.56,0,0,0-.68.57.17.17,0,0,1-.11.08.28.28,0,0,0-.12.08l-.35,0-.64.05a4.26,4.26,0,0,1-.61,0q-.27,0-.27-.09c-.12-.19-.25-.4-.37-.62a1,1,0,0,1,0-.88,1.45,1.45,0,0,0,0-1.16,5.07,5.07,0,0,1-.17-1.4,13.86,13.86,0,0,1,.08-1.43,1.81,1.81,0,0,0,0-.74,1.53,1.53,0,0,1,0-.74,6.11,6.11,0,0,0-.16-1.69,3.24,3.24,0,0,1,.09-1.73.94.94,0,0,0-.08-.64c-.09-.2-.18-.4-.26-.6-.11-.41-.2-.82-.27-1.22l-.21-1.22a.64.64,0,0,1,.15-.45.39.39,0,0,0,0-.49.22.22,0,0,0,0-.2H150a.3.3,0,0,1,0,.2c-.12-.19-.23-.37-.32-.53s-.06-.39.1-.73a.27.27,0,0,0,.06-.26,1.14,1.14,0,0,1-.09-.31,1.26,1.26,0,0,1-.34.12.81.81,0,0,0-.27.11,7.74,7.74,0,0,1-2.35,1.21c-.8.25-1.59.48-2.37.7a2,2,0,0,0-.69.31,1.89,1.89,0,0,0-.42.78,1.52,1.52,0,0,0,.46-.33,6.7,6.7,0,0,0-.07.72,2.06,2.06,0,0,1-.14.67,1.81,1.81,0,0,1-.4.52,7,7,0,0,0-.52.55.41.41,0,0,1-.14.12.14.14,0,0,0-.07.17c-.1.41-.2.82-.27,1.25s-.18.9-.31,1.44a4.84,4.84,0,0,1,.35-.45c.09-.1.18-.22.29-.37a2.1,2.1,0,0,0,.1.4.3.3,0,0,1-.05.3,3.87,3.87,0,0,0-.32,1,1.83,1.83,0,0,1-.52.93c-.24.35-.28.63-.11.86a.59.59,0,0,1,0,.58,10.33,10.33,0,0,0-.37,1.42c-.07.45-.14.91-.18,1.4s-.24.62-.81.59a1.19,1.19,0,0,1-.88.92c-.61.2-1.11.33-1.51.42a5.63,5.63,0,0,1-1.72,0,.49.49,0,0,0-.35.19,1.21,1.21,0,0,1-.22.23.81.81,0,0,0-.22.23,2.32,2.32,0,0,1-1.49,1,1.3,1.3,0,0,1-1.34-.48,3.3,3.3,0,0,1-.08-3.48,5.94,5.94,0,0,0,.33-1.12,8.66,8.66,0,0,1,.26-1.12.7.7,0,0,0,0-.29.61.61,0,0,1,0-.3,3.86,3.86,0,0,0,.4-.68,1.77,1.77,0,0,0,.13-.77,1.55,1.55,0,0,1,.07-.72l.25-.82a5.91,5.91,0,0,0,.23-1.11,2.49,2.49,0,0,1,.48-1.15l.41.13c.32-.45.3-.68-.05-.71s-.31-.14-.27-.4a9.51,9.51,0,0,1,.25-1,9.32,9.32,0,0,0,.25-1l.16-.22a4.15,4.15,0,0,0,.5-.87,4.59,4.59,0,0,0,.12-.79.81.81,0,0,1,.06-.4c.23-.69.44-1.37.62-2a9.85,9.85,0,0,1,.82-2,4.23,4.23,0,0,0,.1-.53,6.31,6.31,0,0,0,.16-1,1.56,1.56,0,0,1,1-1.27,4.2,4.2,0,0,1-.18-1.07,1.77,1.77,0,0,1,.57-1.2,1.22,1.22,0,0,0,.3-.73,4.06,4.06,0,0,1,.09-.76c.08-.32.16-.62.24-.92a8,8,0,0,1,.29-.92.9.9,0,0,0,.13-.41c0-.18.14-.26.4-.27a1.7,1.7,0,0,0-.08-.3.55.55,0,0,1,0-.33,6.67,6.67,0,0,1,.25-1l.33-.93a.68.68,0,0,0,.71-.38,1.57,1.57,0,0,1,.67-.63,1.08,1.08,0,0,0-.44-.28,1.77,1.77,0,0,0-.61.2q.17-.48.33-.9a4.26,4.26,0,0,0,.22-.81.87.87,0,0,1,.46-.5.69.69,0,0,0,.41-.43.94.94,0,0,0,0-.55.46.46,0,0,1,0-.42,1.87,1.87,0,0,0,.39-1.17,2.45,2.45,0,0,1,.19-1.13,2.84,2.84,0,0,0,.29-1,3.74,3.74,0,0,1,.28-1,9.57,9.57,0,0,1,.37-1q.21-.5.45-1a1.58,1.58,0,0,1,.41-.23.53.53,0,0,0,.29-.21,4.12,4.12,0,0,0,.51-1.19,3.64,3.64,0,0,0,.09-.6,5.09,5.09,0,0,0,0-.58,1.7,1.7,0,0,1,.77-1.56l0-.19,0-.19a3.38,3.38,0,0,0,.78-1.85c0-.59,0-1.18,0-1.78a3.2,3.2,0,0,1,.16-1.32c.15-.42.29-.85.43-1.31a.55.55,0,0,1,.35-.38.6.6,0,0,1,.49,0,1,1,0,0,1,.36.26,1.61,1.61,0,0,0,.45.31,5.36,5.36,0,0,0,.74-2.07,6.41,6.41,0,0,1,.16-1,1.72,1.72,0,0,1,.54-1.16,10.47,10.47,0,0,1,.94-.78c.35-.23.56-.14.63.28l.38,1.1a7.37,7.37,0,0,1,1-.34,5.65,5.65,0,0,0,1-.33q.68-.24.9-.09c.14.11.21.38.2.81v1.55a6.32,6.32,0,0,0,0,1c0,.29,0,.61.07,1,0,.76.09,1.53.13,2.3s.09,1.54.14,2.31a2.35,2.35,0,0,0,.18,1.07,7.13,7.13,0,0,1,.29,2.09,18.64,18.64,0,0,1-.14,2.22,4.21,4.21,0,0,0,.11,1.41,6.28,6.28,0,0,1,.31,1.79c0,.62,0,1.24,0,1.84s0,1,0,1.45,0,1,0,1.45c0,.73.08,1.43.13,2.12s.1,1.38.14,2.11a15.24,15.24,0,0,0,.14,1.79,15.24,15.24,0,0,1,.14,1.79l0,.9c0,.3,0,.6,0,.9a3.37,3.37,0,0,0,0,.58l.09.56.23,1.33a1.19,1.19,0,0,1,0,.32.47.47,0,0,0,.05.32,2.61,2.61,0,0,1,.45,1.47c0,.56,0,1.1.08,1.61s.12.84.15,1.27a4.13,4.13,0,0,0,.28,1.24l0,.26.06,3.38q0,1.71.06,3.39l.08,3.87Zm-21.6-15a.22.22,0,0,0,0-.2A.22.22,0,0,1,138.5,123.44Zm9.13-16.32c.08-.27.17-.56.27-.86a6.16,6.16,0,0,0,.22-.84A11.6,11.6,0,0,0,148,104c-.06-.49-.1-1-.12-1.64l-.19.39q0,.1-.09.24c-.23.91-.49,1.8-.77,2.66s-.54,1.76-.78,2.66c-.14.46-.25.91-.35,1.35s-.19.92-.28,1.41a6.3,6.3,0,0,0-.18.84,5.69,5.69,0,0,1-.18.84c-.12.54-.27,1.08-.43,1.63l-.5,1.64a3.79,3.79,0,0,1-.21.65,1.5,1.5,0,0,0-.15.64,11.33,11.33,0,0,1-.5,2.58c-.27.84-.5,1.69-.7,2.55l.07,0v-.06A.66.66,0,0,0,143,122a2.18,2.18,0,0,1,.16-.45c.38-1.27.75-2.54,1.09-3.81s.71-2.54,1.1-3.81q.3-.9.51-1.77a5.27,5.27,0,0,1,.77-1.75,2.24,2.24,0,0,1,.23-.53,2.17,2.17,0,0,0,.23-.52c.11-.37.22-.74.33-1.13s.21-.76.32-1.12Zm-1.08,18.7a5.7,5.7,0,0,0,2.71-.79,1.67,1.67,0,0,0,0-.74,6.81,6.81,0,0,1-.15-.71,3.1,3.1,0,0,1,0-.74,1.73,1.73,0,0,1,.35-.81c-.06-.07-.11-.15-.17-.23a.53.53,0,0,1-.11-.24l-.19-1.13a11,11,0,0,1-.13-1.14.89.89,0,0,1,0-.34c0-.13.18-.15.41-.07a.38.38,0,0,0,0-.19.4.4,0,0,1,0-.2c-.29.09-.49.05-.6-.13s-.24-.38-.37-.61a5,5,0,0,0-.23.88,1.19,1.19,0,0,1-.53.73.62.62,0,0,0-.32.38,1.27,1.27,0,0,0,0,.39l.07.38c0,.12-.05.24-.2.36v0c-.15.41-.28.82-.41,1.23a4.88,4.88,0,0,0-.2,1.27,4.13,4.13,0,0,1-.3,1.28c-.35.71-.23,1.07.38,1.1Zm2.11-10a.19.19,0,0,1-.08-.08s0,0-.08-.08a.1.1,0,0,1,0,.1.11.11,0,0,0-.05.11l.13,0s0-.07,0-.09a.16.16,0,0,0,0-.1Zm-.17-1a1.73,1.73,0,0,0,.51-.22,1.28,1.28,0,0,0,.21-.49v0A.79.79,0,0,0,148.49,114.81Zm.88,4.77a.32.32,0,0,1,0,.2l.19,0Zm-1.43-10.64c.06-.18.11-.35.17-.51a5.3,5.3,0,0,0,.17-.52l-.19,0a1.21,1.21,0,0,0,0,1Zm1.09-1.61H149l.19,0Zm-.3-2.86.21-.29c-.05,0-.08-.07-.08-.09s0,0-.08-.08l-.16.22a.32.32,0,0,0,.1.18Zm3-11.9c-.25.52-.5,1-.75,1.46a1.09,1.09,0,0,0,.12,1.3.35.35,0,0,1,0,.23.47.47,0,0,0,0,.24,6.31,6.31,0,0,1,.1.76c0,.25,0,.51,0,.77a5.91,5.91,0,0,0,.35,1.85,4.49,4.49,0,0,1,.22,1.87c0,.35.1.5.4.45a.22.22,0,0,0,0,.2.22.22,0,0,1,0-.2l-.24-3.65c0-.43,0-.86,0-1.27a5.19,5.19,0,0,0-.07-1.19l-.1-.56a2,2,0,0,1,0-.59,5.67,5.67,0,0,0,.21-.88A.8.8,0,0,0,151.68,92.57Zm-.09-1.67h.07v-.06Z"/><path class="cls-1" d="M161.87,125.28l.18-2.36-.06-.32c-.05-.08-.11-.15-.17-.23s.06-.18.34-.32a.53.53,0,0,1,.08-.63.51.51,0,0,0,.09-.63c-.06-.07-.05-.19,0-.35a2.1,2.1,0,0,0,.1-.51,3,3,0,0,1,.48.12l.24-.82a7.08,7.08,0,0,0,.2-.75.4.4,0,0,0,0-.2.43.43,0,0,1,0-.2c.08-.31-.14-.43-.64-.34a4,4,0,0,0,.44-.46.19.19,0,0,0-.07-.22.69.69,0,0,1-.19-.19c.29-.31.57-.63.84-1s.54-.67.83-1a.5.5,0,0,1-.14-.43c0-.17-.09-.29-.32-.33,0,0-.06,0,0-.09a.48.48,0,0,1,.07-.18,1.74,1.74,0,0,0,.19-1.19.91.91,0,0,1,.31-.83.43.43,0,0,0,0-.27,7.25,7.25,0,0,0,.15-1,.31.31,0,0,0,0-.11s0,0,0-.1a3.09,3.09,0,0,0,.71-1.55.42.42,0,0,1,.19-.23.68.68,0,0,0,.25-.23,1.64,1.64,0,0,1,.35.13l.12,0a.2.2,0,0,0,.1-.21c.15-.37.31-.58.47-.63a2.73,2.73,0,0,1,.84,0c.74,0,1,.46.79,1.23a.81.81,0,0,0-.06.4l.18,0,.85-1.89,0-.19c.12-.28.36-.36.73-.25a1.36,1.36,0,0,1,.54-.64,7.83,7.83,0,0,1,.77-.43,4.88,4.88,0,0,1,1-.32,2.59,2.59,0,0,1,1-.07.63.63,0,0,0,.27,0,.88.88,0,0,1,.32,0,1.06,1.06,0,0,0,0,.2.41.41,0,0,1,0,.2c-.11.62-.23,1.22-.37,1.81s-.26,1.19-.37,1.81a.54.54,0,0,0,0,.39.85.85,0,0,1,0,.39l-.3,2c-.11.67-.21,1.33-.31,2-.14,1-.27,1.93-.41,2.88L172,120c-.15.89-.28,1.75-.4,2.59s-.22,1.7-.33,2.58a14.94,14.94,0,0,0-.21,1.79,16.93,16.93,0,0,1-.22,1.78c-.13,1.28-.29,2.54-.49,3.78s-.38,2.5-.55,3.78c-.11.58-.2,1.15-.26,1.7s-.12,1.11-.2,1.68a1.56,1.56,0,0,0,0,.68c.06.23.11.45.15.65a1.6,1.6,0,0,1-.4.14,1.26,1.26,0,0,0-.34.12,3.24,3.24,0,0,1-2.22,1.41l-.27.08a1.21,1.21,0,0,1-.28.08.39.39,0,0,0-.18.07.38.38,0,0,1-.19.06,2.29,2.29,0,0,0-1,.14,5.62,5.62,0,0,0-.93.45c-.27.13-.56.25-.84.37a1.7,1.7,0,0,1-1,.06.63.63,0,0,0-.35,0,1.75,1.75,0,0,0-.33.15c-.59.36-1,.35-1.36,0a1.3,1.3,0,0,1-.22-.87c0-.31.09-.64.16-1a3.65,3.65,0,0,0,0-.77,6,6,0,0,1,.12-2.36,6.3,6.3,0,0,0,.18-1.22,9.7,9.7,0,0,1,.11-1.22l.31-1.61c0-.09.05-.2.08-.33a1.19,1.19,0,0,0,0-.33c0-.39.05-.78.09-1.18a4.49,4.49,0,0,0,0-1.16.16.16,0,0,1,0-.14,1.64,1.64,0,0,0,.31-1,5.23,5.23,0,0,1,0-1,4.76,4.76,0,0,0,.1-1.28c0-.41,0-.83,0-1.26a2.56,2.56,0,0,1,.15-.61,3.76,3.76,0,0,0,.28-.86,2.71,2.71,0,0,1,.34-.86l0-.13h0Zm-.36,1.35h.07l-.05.07.05-.07Zm2-9.41-.18,0s.07.06.07.08a.19.19,0,0,0,.08.08l.12-.08a.38.38,0,0,0-.16-.17Zm4.88-7.11-.19,0a3.75,3.75,0,0,0-.33,1.48,6.2,6.2,0,0,1-.21,1.46,13.89,13.89,0,0,0,.31-1.41c.08-.44.18-.91.31-1.41Zm-1.77-19.83a1.76,1.76,0,0,0,.12-1.16,6.17,6.17,0,0,0-.34-.88.76.76,0,0,1-.15-.49,1.18,1.18,0,0,1,.3-.51l.16-.22a2.14,2.14,0,0,1,.68-1.15l1-.82,7.74-1.32.48.54c.16.16.31.34.48.53a.26.26,0,0,1,.11.27.79.79,0,0,0,0,.3,1.23,1.23,0,0,1,0,.28,1.28,1.28,0,0,0,0,.29c0,.43,0,.85.05,1.26a3.14,3.14,0,0,1-.38,1.39,1.9,1.9,0,0,0-.14.7,3.84,3.84,0,0,1-.07.69c-.09.49-.19,1-.3,1.51s-.2,1-.29,1.51c-.33,1.61-.57,3.2-.74,4.78a2.82,2.82,0,0,1-.62,1.67,2.86,2.86,0,0,1-1.41,1c-.48.13-.94.23-1.4.31a3,3,0,0,1-1.06.08,2.26,2.26,0,0,1-.54-.33,2.06,2.06,0,0,1-.37.29,2.8,2.8,0,0,0-.37.29c-.2.12-.37.24-.53.35a.67.67,0,0,1-.56.1c-.1-.07-.24,0-.41.07l-.44.27a4.43,4.43,0,0,1-.64-.54,6.21,6.21,0,0,0-.57-.49,1.19,1.19,0,0,1-.53-1.2,18.14,18.14,0,0,1,.28-3.06c.19-1,.41-2.09.67-3.12.12-.54.23-1.08.31-1.61a6.3,6.3,0,0,0,.05-1.56c0-.1,0-.16,0-.19a.26.26,0,0,1-.09-.18V90Z"/><path class="cls-1" d="M237.61,142.64c.1.33-.31.64-1.21.92-.4.15-.82.29-1.25.41s-.88.21-1.35.29c-2.05.35-4.09.69-6.1,1s-4,.6-6.08.81c-1.19.12-2.4.29-3.63.53s-2.47.43-3.69.59l-9.52,1.5-9.52,1.5-4.25.72a30.16,30.16,0,0,0-4.19,1c-.31,0-.59-.05-.85-.05a3.55,3.55,0,0,1-.79-.06l-3.84.66-2.83.48-.88.15-.94.17a8.14,8.14,0,0,0-.87.05l-.8,0c-.6,0-1.16,0-1.67.06a3.19,3.19,0,0,1-1.33-.2,3.58,3.58,0,0,1-1.05-.47,2.47,2.47,0,0,1-.38-.32l-.32-.34a.19.19,0,0,1-.08-.08s0-.05-.07-.08l0-.19,0-.13-.14-.43v-.06l0-.14v-.32l-.09-.57,0-.57v-.33a.15.15,0,0,1,0-.1.11.11,0,0,0,0-.1l.1-.21.48-1.7.19-.42a1.19,1.19,0,0,0,.13-.22.82.82,0,0,1,.12-.21l.31-.83a3.75,3.75,0,0,0,.3-.73,5.5,5.5,0,0,1,.23-.72c.05-.23.11-.45.18-.68a6.2,6.2,0,0,1,.23-.69l.85-1.89.28-.63a.7.7,0,0,0,.12-.22,1.76,1.76,0,0,1,.13-.21c.15-.37.3-.72.43-1s.29-.67.44-1c.28-.66.58-1.3.9-1.94a18.13,18.13,0,0,1,1.05-1.83l.34-.64.4-.71,2.39-5c.79-1.66,1.59-3.32,2.38-5,.48-1,1-2.05,1.45-3.06s1-2,1.46-3.07c.22-.47.45-1,.68-1.51a7.22,7.22,0,0,0,.42-1.14,5.8,5.8,0,0,1,.55-1.48c.25-.46.48-.94.7-1.45l.16-.16c.43-.8.83-1.65,1.22-2.54a21.41,21.41,0,0,1,1.29-2.48,5.11,5.11,0,0,1,.31-.67,3.14,3.14,0,0,0,.25-.59,19.36,19.36,0,0,1,1.89-4.7c.84-1.5,1.63-3,2.36-4.57.34-.75.69-1.49,1-2.22s.7-1.47,1.05-2.22a4.49,4.49,0,0,0,.45-1.12,1.36,1.36,0,0,0,.08-.33h-.07l-.18,0-.13,0-.38.07a1.15,1.15,0,0,1-.33-.07,1.09,1.09,0,0,1-.41.26l-.19,0h-.06l-.26,0-.94.16-2.11.33a12.78,12.78,0,0,0-2.09.45,15.46,15.46,0,0,1-2,.47,1.67,1.67,0,0,1-1.46-.21l-.06,0a.18.18,0,0,1-.13,0,6,6,0,0,1-1.47.13,1.65,1.65,0,0,1-.69-.21.59.59,0,0,1-.25-.38,1.36,1.36,0,0,0-.14-.4,1.64,1.64,0,0,0-.23-.25,1.37,1.37,0,0,1-.24-.25,4.29,4.29,0,0,0-.23-.38c-.09-.14,0-.26.16-.38a2.85,2.85,0,0,0,.92-.87.6.6,0,0,0,0-.62,1.37,1.37,0,0,0-.59-.45,4.69,4.69,0,0,1-.79-.44,2.54,2.54,0,0,0-.91-.4,3.88,3.88,0,0,1-.9-.33c-.09-.07-.12-.21-.07-.41a5.35,5.35,0,0,1,.27-.69,2.58,2.58,0,0,1,.53-.71,1.32,1.32,0,0,1,.65-.37,17.87,17.87,0,0,0,2.21-.73q.9-.37,1.86-.87a1.79,1.79,0,0,1,.49-.15c.21,0,.32,0,.32,0a1.29,1.29,0,0,0,.73.1,7.5,7.5,0,0,0,.91-.15l1-.23a4.7,4.7,0,0,1,1-.13,5.62,5.62,0,0,0,1.81-.38,8,8,0,0,1,1.87-.44,8.67,8.67,0,0,0,1-.1l.95-.16.81-.14.95-.16,1.88-.33,1.89-.32.95-.16.44-.08.44-.07.19,0,.19,0h.46l.2,0A1,1,0,0,1,205,79a.6.6,0,0,0,.17.07,1.51,1.51,0,0,1,.55.17l.43.25.74.52a.29.29,0,0,1,.08.08s0,0,.07.09.08.06.08.08a.19.19,0,0,0,.08.08.67.67,0,0,0,.16.17s.08.07.08.12l.23.15.14.11s.06.09.16.16v.07a1.9,1.9,0,0,1,.2.8c0,.05,0,.08,0,.1a.16.16,0,0,0,0,.1l0,.13a.26.26,0,0,0,0,.2l-.09.6c-.05.22-.09.46-.14.7a3.41,3.41,0,0,1-.25.79l.1-.15a.7.7,0,0,0-.12.22,1.76,1.76,0,0,1-.13.21v.06l-.05.08a.3.3,0,0,0,0,.2c-.14.2-.2.33-.19.42s-.1.16-.09.18a.55.55,0,0,1-.1.18l-.28.63a2.11,2.11,0,0,0-.16.61v-.07c-.35.75-.7,1.47-1.06,2.16s-.69,1.38-1,2.08l-.27.53c-.08.17-.16.34-.26.53l-.28.63a.11.11,0,0,1,0,.1.11.11,0,0,0,0,.1.3.3,0,0,1,0,.2c-.09.23-.18.44-.25.63a3.36,3.36,0,0,0-.19.61,17.43,17.43,0,0,1-.88,2.45c-.37.86-.72,1.71-1.05,2.54a13.65,13.65,0,0,1-.61,1.34,4.84,4.84,0,0,1-.79,1.1,5.88,5.88,0,0,0-.92,1.42,7,7,0,0,0-.54,1.75,8.88,8.88,0,0,0,.8-1.37l.14,0c-.84,1.7-1.67,3.39-2.5,5.09l-2.5,5.09a.81.81,0,0,0-.64.4,6.63,6.63,0,0,0-.67,1.05c-.23.43-.46.88-.7,1.35a10.66,10.66,0,0,1-.79,1.3l.82-.14c-.27.65-.54,1.27-.78,1.85s-.51,1.18-.8,1.79a3.26,3.26,0,0,1-.37.68,1.61,1.61,0,0,1-.35.41,5.91,5.91,0,0,0-1.56,2.6,18.29,18.29,0,0,1-.86,2q-.51,1-1,2a11.08,11.08,0,0,0-.42,1.14l-.28.86a3.66,3.66,0,0,1-.38,1.52c-.26.54-.51,1.09-.76,1.65l-1.87,4c-.61,1.34-1.23,2.68-1.86,4a1.49,1.49,0,0,0-.25.44l-.06.07-.12,0a.83.83,0,0,1-.41.26l-.23.17a1,1,0,0,0-.22.24,1.05,1.05,0,0,1,.3-.15,2.09,2.09,0,0,0,.3-.15,2.37,2.37,0,0,0-.79.72,2.19,2.19,0,0,0-.15.22l-.16.22-.16.22c-.07.1,0,.14.09.11a1.19,1.19,0,0,0,.54-.22,1.14,1.14,0,0,1,.36-.19s.06,0,.07,0,0,0,.07,0a2.15,2.15,0,0,0,.45-.4A.35.35,0,0,1,181,144c0-.05.14,0,.32,0l.19,0h.13l.12,0,.19,0,.53-.09a2.28,2.28,0,0,0,.53-.15,18.39,18.39,0,0,1,3.58-.64c1.15-.09,2.33-.24,3.55-.45a6.89,6.89,0,0,1,1.34-.1l1.24,0a7,7,0,0,0,2.18-.12,6.58,6.58,0,0,0,2-.92,9.51,9.51,0,0,0,1.07,0,10.83,10.83,0,0,1,1.14,0,6.18,6.18,0,0,0,1.84-.22c.61-.17,1.21-.35,1.78-.53a17.21,17.21,0,0,1,3.35-.87,11.38,11.38,0,0,1,2.89-.13,9.63,9.63,0,0,0,2.41-.09,18,18,0,0,0,2.22-.51,23.79,23.79,0,0,1,2.88-.56q1.33-.17,2.55-.24a48,48,0,0,0,8.08-1.18,39.23,39.23,0,0,1,4.34-.75c1.36-.14,2.72-.24,4.09-.31a2.58,2.58,0,0,0,.26.38.39.39,0,0,1,.1.4,1,1,0,0,1-.4.46,5.42,5.42,0,0,1-1.13.58.15.15,0,0,0,0,.23.71.71,0,0,1,.11.28c-1.37.32-2.71.57-4,.75s-2.62.34-3.94.48c-1.6.18-3.23.42-4.86.7l-4.91.84c-.67.11-1.31.21-1.92.29a7.56,7.56,0,0,1-1.84,0,10.49,10.49,0,0,0-2.26.07,8.5,8.5,0,0,0-2.65.77,7.37,7.37,0,0,1-1.3.39c-.54.11-1,.21-1.5.28-.84.15-1.68.32-2.53.53a24.11,24.11,0,0,0-2.8.9c1.11-.1,2.11-.22,3-.35a16,16,0,0,1,2.46-.19,16.14,16.14,0,0,0,2-.08l1.94-.2q.9-.09,1.77-.24c.59-.1,1.2-.18,1.84-.25a1.62,1.62,0,0,1,.5.27.89.89,0,0,0,.61.19,17,17,0,0,0,2.32-.3c.81-.16,1.77-.31,2.86-.46h-1.1c-.26,0-.56,0-.91,0a19.37,19.37,0,0,1,2.29-.62l2.13-.4c1-.16,1.89-.34,2.76-.53s1.79-.41,2.74-.66a21.06,21.06,0,0,1,3.94-.81c1.31-.13,2.59-.24,3.83-.33a2.16,2.16,0,0,1,1.61.37,2.91,2.91,0,0,1,.75,1.56,9.07,9.07,0,0,0,.38,1.62Zm-61.46,3a1.64,1.64,0,0,1-.18.22.54.54,0,0,0-.13.22.57.57,0,0,0-.12.41.47.47,0,0,1,.12-.22A1.51,1.51,0,0,0,176,146Zm2.18,2.47.56-.09V148l-.57.06a4.41,4.41,0,0,0-.57.07,6,6,0,0,1-1.09,0l-.12.09h.58a3.09,3.09,0,0,0,.58-.06l.56-.1Zm11.47-1.83,8.21-1.2.09-.21L189.82,146l0,.25Zm5.55-.49,3.46-.59-1.18.1c-.28,0-.52.06-.73.1s-.42.08-.63.13l-.86.25Zm3.61-4.24-.13,0,.18-.1Zm13.91-1.93.26,0-.2,0Zm7.45,3a1.89,1.89,0,0,0,1.17,0c.37-.1.84-.27,1.41-.49Zm4.76-.56.25,0s-.07,0-.07,0,0,0-.07,0l-.19,0,.14,0Z"/><path class="cls-1" d="M121.21,89l0-.08a.3.3,0,0,1,0-.1,2,2,0,0,1,0-.55l0-.18a1.62,1.62,0,0,1,0-.19c0-.17,0-.34.07-.5a4,4,0,0,0,0-.49,1,1,0,0,1,.19-.58.67.67,0,0,0,.11-.44,1.94,1.94,0,0,1,0-.24.3.3,0,0,0,0-.21.42.42,0,0,1,0-.27,2,2,0,0,1,.1-.29.91.91,0,0,1,.07-.14l.06-.13c0-.08,0-.12,0-.14s-.06-.13,0-.23a.08.08,0,0,0,0,0s0,0,0-.08a1.3,1.3,0,0,1,.15-.57l.06-.16c0-.06,0-.1-.08-.14s0-.07,0-.15l.11-.69a.14.14,0,0,1,0-.07l.16-.11a.15.15,0,0,0,.08-.11.1.1,0,0,0,0-.12.47.47,0,0,1-.06-.48l0-.09s0,0,.12-.06.06,0,.08-.1a.2.2,0,0,0,0-.17l0-.07c0-.14.08-.28.13-.42s.08-.27.11-.41a6,6,0,0,1,.24-.83c.09-.26.18-.53.26-.8l.06-.27a1.34,1.34,0,0,1,.07-.27c.09-.22.18-.43.26-.65s.17-.43.27-.64l.06-.08,0-.08c.08-.13.16-.24.24-.35l.23-.33a1.92,1.92,0,0,1,.16-.21.83.83,0,0,0,.16-.2,1.19,1.19,0,0,0,.15-.18l.13-.18a2.52,2.52,0,0,1,.4-.4c.14-.11.29-.21.44-.31a2.72,2.72,0,0,1,.62-.3l.63-.23a2.07,2.07,0,0,1,.58-.12l.57-.09a.16.16,0,0,1,.14,0,1.57,1.57,0,0,1,.76,1.59,3.38,3.38,0,0,0,0,.45,1.08,1.08,0,0,1-.06.49c0,.19-.09.39-.14.59s-.09.39-.13.59a.58.58,0,0,1-.26.41l-.06,0a.17.17,0,0,0-.06.06.75.75,0,0,1-.2.29,1.27,1.27,0,0,0-.21.29h-.27a.72.72,0,0,0-.25,0,.14.14,0,0,1-.16-.07s0-.07-.12-.06a.44.44,0,0,0-.19.1l-.1.1-.09.06a.63.63,0,0,0-.42.34c0,.13-.12.19-.23.17a1.52,1.52,0,0,0,0-.19h-.14a.33.33,0,0,1-.17,0,.21.21,0,0,1-.1-.06s0-.07,0-.15.19-.12.2-.22a.5.5,0,0,1,0-.12s0-.08,0-.11a1,1,0,0,1,.07-.3l.11-.32a3.12,3.12,0,0,0,.15-.39.68.68,0,0,0,0-.4.72.72,0,0,1,0-.33c0-.12,0-.23,0-.34a1.84,1.84,0,0,0,0-.24,2.76,2.76,0,0,1-.16.27,1.06,1.06,0,0,0-.11.21c-.1.24-.2.47-.31.7a6.15,6.15,0,0,0-.28.71,2.81,2.81,0,0,0-.08.31,1.19,1.19,0,0,0,0,.32.85.85,0,0,1-.05.26c0,.1-.07.2-.1.3l-.06.22a2.09,2.09,0,0,1-.08.23l-.12.32-.13.33q0,.18-.09.33a1,1,0,0,0-.06.33l0,.37a1.19,1.19,0,0,1,0,.25l0,.11a.48.48,0,0,1,0,.31,1.17,1.17,0,0,0-.09.32l-.11.69a.43.43,0,0,0,0,.11.37.37,0,0,0,.25,0,1.45,1.45,0,0,0,.24-.25.45.45,0,0,0,.11.14q.14.06.18,0a.77.77,0,0,1,.47-.19,1,1,0,0,0,.45-.08,1.36,1.36,0,0,1,.48-.09,1.85,1.85,0,0,0,.47-.08,2.94,2.94,0,0,1,.49-.08,1.16,1.16,0,0,0,.49-.19.68.68,0,0,0,.3-.05.28.28,0,0,1,.28,0,.24.24,0,0,1,.12.18.7.7,0,0,0,0,.31,2.33,2.33,0,0,1,0,.38,2,2,0,0,1-.13.4,1.82,1.82,0,0,0-.16.5c0,.18-.07.35-.1.52l-.06.28a2.74,2.74,0,0,1-.05.28.62.62,0,0,0,0,.13s0,.06-.1.06a1.18,1.18,0,0,0,0,.3s0,0,0,0a0,0,0,0,1,0,.05l-.09.13a.42.42,0,0,0-.08.12.2.2,0,0,0,0,.13l0,.11a.48.48,0,0,0,0,.12.49.49,0,0,1,0,.12s0,.08,0,.09-.21.16-.21.26a.51.51,0,0,1-.06.3.71.71,0,0,0-.09.28l-.06.29c0,.14-.07.27-.11.4a1.13,1.13,0,0,1-.22.37h0a.21.21,0,0,0,0-.13.41.41,0,0,1,0-.12,2.33,2.33,0,0,0,.07-.25,1.23,1.23,0,0,0,0-.25,2.72,2.72,0,0,0,.08-.47,3.55,3.55,0,0,1,.08-.47.88.88,0,0,0,0-.39,2.28,2.28,0,0,1,0-.37.52.52,0,0,1-.11.28.24.24,0,0,0,0,.28.51.51,0,0,1-.07.14.23.23,0,0,0,0,.14c0,.1.06.16,0,.19s0,.09-.14.19,0,.09,0,.13,0,.09,0,.11a.43.43,0,0,1,0,.27c0,.09,0,.18-.07.28l-.32.85-.06.11-.06.12,0-.09a.26.26,0,0,1,0-.08.06.06,0,0,0-.07,0,.18.18,0,0,1,0,.07l-.08,0s0,0-.08-.11a4.4,4.4,0,0,1-.1.5l-.12.43h.06a.91.91,0,0,1,.07-.14,1,1,0,0,0,.08-.14v0l.09,0,.09,0a1.74,1.74,0,0,1,0,.39,1.18,1.18,0,0,1-.24.41l.18,0a.43.43,0,0,1,0,.33c0,.11-.1.23-.16.35a2.38,2.38,0,0,1-.18.3l-.25.29a1.15,1.15,0,0,1-.24.19c-.17.1-.33.19-.48.26l-.49.25-.29.15-.29.17a2,2,0,0,1-.71.29,1.69,1.69,0,0,1-.67,0l-.24-.07a.3.3,0,0,1-.19-.18s0,0-.06,0L122,92.3a.18.18,0,0,1-.1-.09,1.74,1.74,0,0,1-.11-.25.76.76,0,0,0-.13-.23.56.56,0,0,1-.12-.42,1.72,1.72,0,0,0-.11-.51,1.59,1.59,0,0,1-.13-.51,1.77,1.77,0,0,0,0-.2.76.76,0,0,1,0-.21,2.94,2.94,0,0,0,0-.42,2.63,2.63,0,0,0-.06-.39.3.3,0,0,1,0-.11l.07-.11v0Zm3.59-5.27a.23.23,0,0,0,.07-.07.39.39,0,0,0-.31.15,3.84,3.84,0,0,1-.27.29c0,.12-.06.25-.08.38a2.41,2.41,0,0,0-.07.37c0,.11,0,.22,0,.33a.7.7,0,0,1-.07.31.51.51,0,0,0,0,.51s0,.06,0,.12a1.58,1.58,0,0,0-.11.54c0,.16,0,.34,0,.52a.65.65,0,0,0,0,.19c0,.06,0,.12-.11.17s-.06,0-.05.07v.36a.83.83,0,0,0,.08-.12l.06-.1,0,.2c0,.06,0,.13-.07.2a1.14,1.14,0,0,0-.07.28.2.2,0,0,0,.12.2s.05,0,.06.1a1.27,1.27,0,0,1,0,.2.62.62,0,0,0,0,.19l.13.64a.65.65,0,0,1,0,.2.48.48,0,0,0-.06.32l0,.27c0,.14.09.21.14.23a.7.7,0,0,0,.31,0s0-.09.07-.14l.08-.11a.62.62,0,0,1,.11-.17l.12-.18.18-.34.19-.34a.75.75,0,0,0,.13-.35,2.37,2.37,0,0,1,.09-.36.53.53,0,0,1,.06-.13,3.45,3.45,0,0,1,.14-.42c0-.14.09-.28.13-.42a1.32,1.32,0,0,0,0-.31,1.32,1.32,0,0,1,0-.32,1.61,1.61,0,0,0,.08-.62,1.91,1.91,0,0,1,.15-.87.47.47,0,0,0,0-.21.5.5,0,0,1,0-.27,1.42,1.42,0,0,0,.06-.31,2.38,2.38,0,0,0,.06-.37c0-.12,0-.25,0-.37l0-.19a1.48,1.48,0,0,0,0-.19.9.9,0,0,0,0-.18c0-.18-.08-.25-.25-.23l-.26,0a.84.84,0,0,0-.24.06l-.24.08a.43.43,0,0,0-.2.15c-.06.06-.1.1-.13.1h-.13Zm-.9,5.69a.41.41,0,0,0,0,.23.76.76,0,0,0,.09.18.18.18,0,0,1,0-.21A.14.14,0,0,0,123.9,89.39Zm-1.06-5.32a.13.13,0,0,0,0,.06A.13.13,0,0,1,122.84,84.07Zm.68-3.86h0v0Zm2.26,10.13a.82.82,0,0,0,.29-.4l-.07-.1a2.35,2.35,0,0,0-.11.24A1.65,1.65,0,0,1,125.78,90.34Zm-2-11.08V79.2s0,0,0,0l0,0s0,0,0,.06h.06Zm.1-.28,0-.19h-.06l0,.19Zm3.17,6.87a1.84,1.84,0,0,0-.11.34.29.29,0,0,0,.06.15.75.75,0,0,1,.08-.24.32.32,0,0,0,0-.27Zm.31.06a.35.35,0,0,0,.07-.14h0a.75.75,0,0,1-.08.14Zm-.07-.45a.36.36,0,0,0,0-.11s0,0,0,0,0,0,0,0S127.32,85.39,127.33,85.46Zm.21,0a.15.15,0,0,0,0-.07Zm.29.14h.06l0-.19h-.06s0,.11,0,.19Z"/><path class="cls-1" d="M143.14,78.62a.25.25,0,0,0,.09-.23c.05-.09.1-.16.14-.24l.16-.25V78l.06-.05.14-.27c0-.08.08-.18.12-.28h-.13l-.11,0a1.19,1.19,0,0,0,.07-.23.58.58,0,0,1,.14-.25.36.36,0,0,1,.09.09l.11-.12s0-.07,0-.15l-.11.06s0,0,0,0,0,0,0,0a.84.84,0,0,0,.05-.17.62.62,0,0,1,.1-.17l.05-.06a.09.09,0,0,1,.06,0c.12,0,.19,0,.22-.12a.72.72,0,0,1,.12-.21l0-.12a.73.73,0,0,0-.06-.14l.16-.17.16-.17s0,0,.06,0a.21.21,0,0,0,0,.06l0,0v0l.32-.28a3,3,0,0,1,.4-.32l.42-.3.22-.13a.84.84,0,0,1,.24-.06l-.07.06-.1.09.5-.17a.12.12,0,0,0-.17,0,.24.24,0,0,1-.18,0,.4.4,0,0,1,.26-.14l.25,0,.19,0,.2-.08a1.51,1.51,0,0,1,.29-.13l.29-.11h.05a4.25,4.25,0,0,0,.51,0,.65.65,0,0,1,.46.14l.11.08.15.08a.51.51,0,0,1,0-.17,1,1,0,0,1,.51.24,1.64,1.64,0,0,1,.33.44.61.61,0,0,1,.07.24,2.19,2.19,0,0,0,0,.27c0,.18,0,.36,0,.54l.05.53v.2a.31.31,0,0,1-.12.24.49.49,0,0,0-.18.23,3.53,3.53,0,0,1-.14.56l-.19.56-.06.12c0,.05-.06.07-.12.07l0,0,0,.07,0,.13-.05.11a.88.88,0,0,1-.38.07.53.53,0,0,0-.36.19s0,0,0-.06a.41.41,0,0,0-.05-.09l-.36.33a.61.61,0,0,1-.25.17.34.34,0,0,1-.23,0l-.14,0a.8.8,0,0,1-.15,0q-.27,0-.18-.36a1.32,1.32,0,0,1,.15-.35,1.33,1.33,0,0,0,.1-.28,1.42,1.42,0,0,1,.1-.29,2.25,2.25,0,0,0,.14-.52,4,4,0,0,1,.06-.5V76.5a.44.44,0,0,0,0-.16.17.17,0,0,1,.05-.17s0,0,0-.07l0-.26a2.51,2.51,0,0,1,0-.27.32.32,0,0,0,0-.14.17.17,0,0,0-.1-.08.22.22,0,0,0-.06-.2.31.31,0,0,1-.12-.14c-.05-.06-.09-.09-.11-.09a.75.75,0,0,0-.16.1,1.73,1.73,0,0,0-.47.51,3.33,3.33,0,0,0-.27.61,1.34,1.34,0,0,1-.07.18,1.42,1.42,0,0,1-.08.18,1.89,1.89,0,0,1-.06.18.83.83,0,0,0-.06.21.11.11,0,0,0,0,0s0,0,0,0a2,2,0,0,0-.16.44c0,.14-.06.29-.08.45l-.06.13s0,.08-.05.13a.92.92,0,0,0-.07.31.3.3,0,0,0,.11.24l.07,0a.12.12,0,0,1,.05.08l-.21,0s0,0,0,0a0,0,0,0,0,0,0l-.34,1.65a10.86,10.86,0,0,0-.25,1.93c0,.28,0,.55,0,.82s0,.54,0,.81a4.6,4.6,0,0,0,0,.53c0,.17,0,.34,0,.52a.83.83,0,0,0,0,.15l.06.15a1.83,1.83,0,0,1,0,.47.89.89,0,0,0,.19.39l.41-.55a2,2,0,0,0,.31-.57,3.63,3.63,0,0,0,.26-.81c.06-.27.11-.53.16-.8a5.41,5.41,0,0,0,.12-.58,2.55,2.55,0,0,1,.17-.58.23.23,0,0,0,0-.1s0-.08-.06-.1,0,0,0,0l0,0c.12-.07.16-.14.13-.21a.33.33,0,0,1,0-.19.79.79,0,0,1,.2-.46.35.35,0,0,1,.28-.17.27.27,0,0,0,.14,0,.56.56,0,0,1,.38-.12.43.43,0,0,0,.36-.18.19.19,0,0,0,.09,0,.2.2,0,0,1,.08,0l.11-.06.13,0c.19-.07.26,0,.21.16a1.47,1.47,0,0,1-.06.27c0,.1-.06.19-.08.28l-.12.53c0,.17-.06.35-.08.52s-.07.6-.12.9-.13.6-.21.91c0,.06,0,.13-.05.2a1.94,1.94,0,0,1,0,.2.32.32,0,0,1-.05.14c-.14.29-.27.59-.39.89a3.75,3.75,0,0,1-.47.88.64.64,0,0,1-.1.14c-.19.17-.39.33-.59.49a1.29,1.29,0,0,1-.67.28,1.18,1.18,0,0,0-.49.2,1,1,0,0,1-.38.18,3.89,3.89,0,0,0-.43.11l-.08,0-.5-.1-.05,0s0,0,0,0a.6.6,0,0,1-.36-.07l-.28-.17a1.15,1.15,0,0,1-.55-.72c0-.15-.07-.3-.1-.46s-.07-.32-.1-.47l-.09-.26a.92.92,0,0,1-.05-.28,3.64,3.64,0,0,0,0-.48,2.69,2.69,0,0,1,0-.49v-.06a.5.5,0,0,1-.05-.38,1.14,1.14,0,0,0,0-.41,1.33,1.33,0,0,1,0-.39,3.29,3.29,0,0,0,0-.44.71.71,0,0,0,0-.14l0-.15a.89.89,0,0,1,0-.23,1.79,1.79,0,0,0,0-.23,1,1,0,0,1,.06-.33,1.16,1.16,0,0,0,.08-.32c0-.1,0-.21.05-.31s0-.22.08-.33a.2.2,0,0,1,.07-.1l.08-.11s0,0,0,0,0,0,0,0,0,0,0,0,0,0,0,0a1.09,1.09,0,0,1,.05-.17.47.47,0,0,1,.09-.17.25.25,0,0,0,.08-.17.17.17,0,0,0-.07-.14.12.12,0,0,1-.05-.07.13.13,0,0,0,0-.06.48.48,0,0,1-.18.08.14.14,0,0,1-.15-.09l.17,0a.25.25,0,0,0,.18,0s.05-.08.08-.17a1.89,1.89,0,0,1,.05-.23c0-.07,0-.14.07-.22l.15-.1a.29.29,0,0,0,0-.12.94.94,0,0,1,0-.16.34.34,0,0,1,.14-.23Zm-.52,2.3c0,.07,0,.12,0,.15h.05a1,1,0,0,1,0-.15Zm.52-.9a0,0,0,0,0,0,0h0a.07.07,0,0,1,0,0h0Zm1.08-3.47s0,0,0,0v0h0a0,0,0,0,1,0,0,0,0,0,0,0,0,0Zm.16,1.53h.05Zm.06-.24a2.59,2.59,0,0,0,.17-.38,1.37,1.37,0,0,0,.09-.4,1.65,1.65,0,0,0-.17.39c0,.13-.07.26-.1.39Zm.77-1.89a1.87,1.87,0,0,0-.44,1l.24-.49c.07-.17.15-.33.22-.49Zm.72-1.38a0,0,0,0,1,0,0,0,0,0,0,0,0,0,0,0,0,0,1,0,0,0,0,0,0,0,0,0h0Z"/><path class="cls-1" d="M154.56,68.37s0,0,0,0,0,0,0,0a1.41,1.41,0,0,0,0,.41.76.76,0,0,1-.07.43c0,.06,0,.1,0,.12s0,.12,0,.24a.59.59,0,0,0,0,.53.53.53,0,0,1,0,.29c0,.15,0,.3,0,.44s0,.3-.07.45a3.65,3.65,0,0,0-.09.64c0,.21,0,.41,0,.63a.35.35,0,0,0,0,.15,1.67,1.67,0,0,1,0,.5l-.06.55a.87.87,0,0,0,0,.23,1.77,1.77,0,0,1,0,.23,2.87,2.87,0,0,1,0,.31.77.77,0,0,1-.08.35.3.3,0,0,0,0,.19.33.33,0,0,0,0,.14.17.17,0,0,1,0,.14,4.32,4.32,0,0,0,0,.8,4.29,4.29,0,0,1,0,.8q0,.11,0,.18a.83.83,0,0,0,0,.15,1.15,1.15,0,0,0-.09.34.4.4,0,0,0,.07.3s0,.05,0,.1v.14l.14,0,.14,0,.53-.23a5,5,0,0,1,.53-.23.74.74,0,0,0,.18-.12.43.43,0,0,0,.05-.21.89.89,0,0,1,.05-.32.65.65,0,0,0,0-.31s0,0,0-.09l.08-.11a.48.48,0,0,1,0-.18.11.11,0,0,0-.07-.14v0a.17.17,0,0,0,0-.07l.21-.81a.32.32,0,0,0-.06-.34.17.17,0,0,1-.07-.14.29.29,0,0,1,.08-.14.43.43,0,0,0,.19-.28,2.66,2.66,0,0,0,0-.3c0-.11,0-.23,0-.34a.7.7,0,0,1,.09-.38.4.4,0,0,0,0-.17l-.05-.19a.5.5,0,0,1,0-.21.28.28,0,0,1,0-.13s0-.08.12-.11a.22.22,0,0,0,.07-.16.22.22,0,0,0,0-.2.17.17,0,0,1,0-.17,1.7,1.7,0,0,0,.13-.64,1,1,0,0,1,0-.14,1.21,1.21,0,0,0,0-.14.82.82,0,0,0,.1-.24.37.37,0,0,0,0-.21.4.4,0,0,1,0-.19l0-.19a.21.21,0,0,1,.09-.2.37.37,0,0,0,.11-.25.39.39,0,0,0,0-.27.4.4,0,0,1,.07-.45.22.22,0,0,0,.07-.19.4.4,0,0,1-.05-.26.66.66,0,0,0,0-.28.19.19,0,0,1,0-.18c.15-.18.29-.35.44-.5a.33.33,0,0,1,.28-.14l.28,0a.21.21,0,0,0,.23-.17.47.47,0,0,1,0-.1.14.14,0,0,1,.06-.07,1.1,1.1,0,0,0,.29-.17.22.22,0,0,1,.3,0s.07,0,.13,0l.18-.1a.41.41,0,0,0,.13.1.4.4,0,0,1,.27.17.57.57,0,0,1,0,.37l-.12.59a4,4,0,0,0-.06.57c0,.14,0,.26,0,.39s-.06.25-.1.37a2.07,2.07,0,0,1,0,.22.23.23,0,0,0,0,.2s0,0,0,.07a.14.14,0,0,0,0,.07,3.43,3.43,0,0,0-.12.33.81.81,0,0,0,0,.31.15.15,0,0,1-.06-.09s0,0,0,.06a0,0,0,0,0,0,0,2.33,2.33,0,0,1,0,.28l0,.27a1.41,1.41,0,0,1-.07.5,5,5,0,0,0-.11.5l-.06.49c0,.16,0,.32-.07.48s0,.37-.07.55a4.51,4.51,0,0,0-.05.54,5,5,0,0,1-.06.54c0,.18-.06.36-.08.55a.08.08,0,0,0,0,.07.2.2,0,0,1,0,.07h0a.58.58,0,0,1,0,.26,1.72,1.72,0,0,1-.1.26l-.06.19c0,.06,0,.1.06.14a.4.4,0,0,0,0,.42c0,.11-.07.22-.1.33a.52.52,0,0,0,0,.3.28.28,0,0,1,0,.09s0,.07,0,.09,0,.17,0,.25a2,2,0,0,1,0,.24.7.7,0,0,1-.07.22c0,.08-.06.16-.08.23a.73.73,0,0,1,0,.2.33.33,0,0,0,0,.17.55.55,0,0,1-.08.47q-.08.11,0,.15c0,.07-.05.15-.07.23a.28.28,0,0,0,0,.22,1.08,1.08,0,0,0-.12.59,1.52,1.52,0,0,1,0,.56v0h.12a.33.33,0,0,1,0,.14,1,1,0,0,0-.06.56l-.17,0c0,.31-.05.62-.07.92l-.06.92-.13,0a.19.19,0,0,0-.11.07.87.87,0,0,1-.34.27,1,1,0,0,0-.35.25l-.11-.11c-.12.11-.23.21-.33.32l-.32.29-.18,0-.15,0a.29.29,0,0,1-.19-.31,2.56,2.56,0,0,1,0-.39q0-.18,0-.39a1.41,1.41,0,0,1,0-.28.41.41,0,0,0,0-.27.26.26,0,0,0,.1-.14l0-.19.06-1q0-.17,0-.3a2.81,2.81,0,0,0,0-.3l0-.36a1.25,1.25,0,0,0,0-.21.68.68,0,0,1,.05-.23.5.5,0,0,0,0-.21,1.48,1.48,0,0,0,0-.21,1.63,1.63,0,0,1,.05-.36.59.59,0,0,0,0-.35v-.1a.54.54,0,0,0,.1-.35c0-.1,0-.21-.07-.32l-.5.27-.5.25a.89.89,0,0,1-.23.1l-.22.05a.47.47,0,0,0-.17.07.33.33,0,0,0-.06.2.54.54,0,0,0,0,.18,1.21,1.21,0,0,1,0,.18,1.5,1.5,0,0,0,0,.3.58.58,0,0,1-.08.32.22.22,0,0,0,0,.13,1.85,1.85,0,0,1,0,.62c0,.21-.07.42-.09.64s0,.36,0,.53a5.17,5.17,0,0,1,0,.54,2.07,2.07,0,0,1,0,.22,2.09,2.09,0,0,0,0,.21l-.06.49c0,.16,0,.32-.07.48a1.15,1.15,0,0,0,0,.2,1.69,1.69,0,0,1,0,.23.5.5,0,0,1-.07.25l-.56.32a2.2,2.2,0,0,1-.39.17l-.41.14a1.17,1.17,0,0,0-.28.17,3.4,3.4,0,0,1-.28.21.41.41,0,0,0-.09.1.37.37,0,0,1-.27-.09,1,1,0,0,0-.19-.17.23.23,0,0,1,0-.17c0-.18,0-.37,0-.56s0-.39.05-.57l.09-.73c0-.24.06-.48.1-.73a.29.29,0,0,1,0-.1,1.17,1.17,0,0,1,0-.56c0-.2.07-.39.09-.58s0-.4,0-.59,0-.4,0-.6a1,1,0,0,1,0-.24s0-.06,0-.1a.11.11,0,0,0,0-.08,2,2,0,0,1,0-.65,4.63,4.63,0,0,0,0-.65s0-.06,0-.09,0-.07,0-.1a.13.13,0,0,1,.07-.11.21.21,0,0,0,.1-.06l-.09-.16a.37.37,0,0,1,0-.16s0-.11.14-.19a.21.21,0,0,0,0-.13.15.15,0,0,1,0-.17.6.6,0,0,0,.06-.19.76.76,0,0,1-.16.06.33.33,0,0,1,0-.29,1.43,1.43,0,0,1,.17-.32.2.2,0,0,1,0-.08.19.19,0,0,0,0-.09.38.38,0,0,1,0-.25c0-.11,0-.22.07-.34a.54.54,0,0,0,0-.31.07.07,0,0,1,0-.12.38.38,0,0,0,.08-.27,2.11,2.11,0,0,1,0-.26,1.94,1.94,0,0,0,0-.24.5.5,0,0,1,.1-.24s0,0,.05,0l.06-.08v0l-.11,0a1.8,1.8,0,0,0,0-.29c0-.08,0-.16,0-.24s0-.18,0-.28a.41.41,0,0,1,.09-.1.19.19,0,0,0,.08-.16,1.16,1.16,0,0,0,0-.17s0-.09-.07-.13-.06-.13,0-.26,0-.22,0-.33a1.24,1.24,0,0,1,0-.33c0-.1,0-.19.05-.29a1.15,1.15,0,0,1,.08-.29c.05-.15.06-.25,0-.3s0,0,0-.07a.42.42,0,0,1,0-.1.47.47,0,0,1,.12.09l0-.06,0-.05,0-.43a3.64,3.64,0,0,1,0-.45.79.79,0,0,0-.06.28.37.37,0,0,1-.12.25l0,0s0,0,0-.06,0-.34,0-.51a1,1,0,0,1,.2-.54.06.06,0,0,0,0-.08.36.36,0,0,1,0-.21l0-.22,0-.2c0-.07.07-.1.2-.11a2.45,2.45,0,0,0-.08-.36,1.14,1.14,0,0,1,0-.33,2.44,2.44,0,0,1,0-.27.78.78,0,0,1,.1-.32h.15a.34.34,0,0,0,.16-.08.11.11,0,0,1,.14,0c.05,0,.09.11.14.17a.44.44,0,0,1,.06.25,2.59,2.59,0,0,0,0,.48,2.74,2.74,0,0,1,0,.48c0,.26-.06.53-.1.78s-.08.53-.11.8-.06.29-.08.43a1.87,1.87,0,0,0,0,.42.59.59,0,0,0,.05.27.85.85,0,0,1,.09.24l-.08,1.08.05,0,.09-.37c0-.14,0-.27,0-.4s.05-.26.08-.4.07-.23.1-.34.06-.24.08-.35,0-.3.07-.46,0-.3.08-.45,0-.23.05-.34,0-.22.05-.34a.73.73,0,0,1,0-.12.75.75,0,0,0,.13-.15s0-.09-.1-.12a.16.16,0,0,0,0-.06.08.08,0,0,1,0-.06.11.11,0,0,0,0-.05.2.2,0,0,1,.08,0,.15.15,0,0,0,.09-.06.53.53,0,0,0,.1-.3v-.55l-.09.14a1,1,0,0,0-.12.19c0-.19,0-.36,0-.51s0-.3,0-.45a.15.15,0,0,1,.05-.07s0,0,0-.06l.05-.08,0-.13a1.7,1.7,0,0,1,0,.24c0,.07,0,.13,0,.2a1.71,1.71,0,0,1,.11-.14.49.49,0,0,1,.08-.1.22.22,0,0,1,.13,0l.13,0,.11-.18h0a1.5,1.5,0,0,0,0,.2.63.63,0,0,1,0,.19v.56h0Zm-2.88,9s0,0,0,.06l0,0,0,0,0,0-.05,0Zm.2-.2h0v0Zm1.7,6.75s0,0,0,0l0,0Zm-1.79-7.77a.11.11,0,0,0,0-.06l0,0v0s0,0,0,0Zm.17-1.57-.05,0a.15.15,0,0,0-.06.07s0,0,0,0a.18.18,0,0,1,.05-.07Zm.11-1.94h0a.06.06,0,0,0,0-.06Zm.12-.54a.18.18,0,0,0,0,.06s0,0,0,.06l0,0v0s0,0,0,0Zm.86,1.26h0v0Zm1.24,3.6,0,0,0,0h0Zm2.42,6.21s0,0,0,0l0,0s0,0,0,0a.2.2,0,0,1,.08-.08Zm0-.75h0v0Zm.21.62c.11,0,.16-.08.15-.16s0,0,0,0l0,0ZM153.81,69.6a1.63,1.63,0,0,0,0-.24A1.63,1.63,0,0,1,153.81,69.6Zm3.32,12.55a0,0,0,0,1,0,0v0h.05s0,0,0,0l0,0,0-.18h-.06a.16.16,0,0,0,0,.06s0,0,0,0Zm.12-.4s0,0,0-.06h0Zm-3-12.52a.64.64,0,0,1,0-.07l0-.06h-.06a.15.15,0,0,1,0,.06s0,0,0,.06a0,0,0,0,0,0,0,.08.08,0,0,1,0,0,.08.08,0,0,0,0,0A0,0,0,0,1,154.28,69.23Zm3.09,11.28a.82.82,0,0,1,0,.24l.06,0a1.25,1.25,0,0,0,0-.24Zm-.5-1.93h0v0Zm.54,1.43h-.06s0,0,0-.06h0a.06.06,0,0,1,0,.06Zm0,.06.05,0s0,0,0-.1,0-.09-.08-.11a.92.92,0,0,1,0,.15v.12Zm-.24-1v0h0ZM157,77.25h0v0Zm.53,1.66v0Zm.08-1.5s0,0,0,.06Zm.62-1.76v0h0a.07.07,0,0,0,0,.06Z"/><path class="cls-1" d="M165.9,70.25c-.09,0-.11.1,0,.14s0,0,0,0,0,0,0,.06a.83.83,0,0,1-.15.28l-.08,0s0,0,0,0l0,.06.12,0c0,.1-.08.19-.29.26h.29l-.1,0-.09,0,.22.09-.21,0s0,0,0,0l.09,0s0,0,0,.06,0,0,0,0a.31.31,0,0,0-.11.09s0,0,0,.08l-.05.09a.14.14,0,0,1-.07.06l-.11,0L165,72l-.35.08h-.05a1.25,1.25,0,0,1-.29.1l-.3.06-.14,0-.14,0-.1,0-.65,0-.67,0c0,.05,0,.09-.05.13l0,.11a.87.87,0,0,1,0,.32,1.91,1.91,0,0,0-.06.33,4.16,4.16,0,0,0-.06.46c0,.15,0,.31-.05.47l-.06.44a3.18,3.18,0,0,0-.06.43,1,1,0,0,0,0,.16.31.31,0,0,1,0,.1.52.52,0,0,0,0,.11q.1-.06.12-.12c0-.05,0-.1,0-.16a.88.88,0,0,0,0-.16.26.26,0,0,1,.05-.18.94.94,0,0,0,.14-.33,1.12,1.12,0,0,0,0-.32,2.56,2.56,0,0,1,0-.27,2.68,2.68,0,0,0,.07-.27,1.36,1.36,0,0,1,.06.24h.05l.06-.22a1.8,1.8,0,0,0,0-.19s0,0,0,0a.35.35,0,0,1,.22-.06s0,.08,0,.18,0,.21,0,.31a1.71,1.71,0,0,0,0,.31l0,.23c0,.08,0,.15,0,.23a1.43,1.43,0,0,0,0,.29l0,.28a.22.22,0,0,0,.11.24.15.15,0,0,1,.07.18,2.18,2.18,0,0,0,0,.25,2,2,0,0,0,0,.25v.3a.53.53,0,0,0,.33,0l.32-.09.23-.06h.45l.26,0,0,.06a0,0,0,0,0,0,.05c0,.06,0,.08.05.07s.1,0,.11,0a.82.82,0,0,1,0,.14s0,0,0,0,0,0,0,0h0l-.18.15.15.05.13,0a.17.17,0,0,1-.13.12.22.22,0,0,0-.13.09l.09,0,.11,0a.62.62,0,0,0-.09.12,0,0,0,0,0,0,0q.18,0,.12.09s0,.08,0,.09l0,0a1.81,1.81,0,0,0-.1.17l-.09.14-1,.39c0,.07.06.08.11.06a.12.12,0,0,1,.14,0l-.15.08-.15,0-.44.1-.46.1a1.15,1.15,0,0,0-.13.53,3.4,3.4,0,0,1-.06.46,2.48,2.48,0,0,1-.15.49.81.81,0,0,0-.06.33,1.59,1.59,0,0,1,0,.43c0,.14,0,.29-.07.44l-.06.39c0,.13-.05.26-.08.39a.41.41,0,0,0,0,.15,0,0,0,0,0,0,0,0,0,0,0,1,0,0c0,.1,0,.2,0,.31s0,.2,0,.3a.12.12,0,0,0,.09.12.57.57,0,0,0,.29,0l.28-.1a1.46,1.46,0,0,1,.9,0q.12,0,.09.12a.25.25,0,0,0,0,.2.33.33,0,0,1,0,.17.13.13,0,0,0,0,.06.07.07,0,0,1,0,.06l0,.16a.16.16,0,0,0,0,.15s0,0,0,.07,0,.07-.07.13l.26-.05a.39.39,0,0,1-.27.27l-.06,0,0,.05s0,.07,0,.08l-.1,0-.2.09-.1,0a.14.14,0,0,0-.09,0l-.12.08-.14,0-.49.09H162s0,0,0,0a.44.44,0,0,1-.23.09h-.22a2.62,2.62,0,0,1-.94-.08.6.6,0,0,1-.23-.17.42.42,0,0,1-.13-.16.14.14,0,0,0-.18-.05.19.19,0,0,1-.16,0,.41.41,0,0,0-.16,0,.15.15,0,0,1-.12,0l-.07-.1a.22.22,0,0,1-.06-.14l0-.14a2.06,2.06,0,0,1,0-.26,2,2,0,0,0,0-.26v-.2a1.23,1.23,0,0,1,0-.2,4.42,4.42,0,0,0,.15-.66l.09-.65s0-.05.07-.07a.07.07,0,0,0,.05-.1.31.31,0,0,1-.05-.18c0-.12,0-.24.05-.36s.05-.24.08-.36l0-.21a.39.39,0,0,1,.08-.2s0,0,0,0l0,0a.2.2,0,0,1,0-.17c0-.07.05-.13.07-.19a1.57,1.57,0,0,1,0-.23l.06-.24s0-.05,0-.08a.2.2,0,0,0,0-.07,3.08,3.08,0,0,1,.11-1,.08.08,0,0,0,0-.08.22.22,0,0,1,0-.08l0-.18,0-.18.13-.63a1.88,1.88,0,0,0,.06-.31,1.12,1.12,0,0,1,0-.31,3.78,3.78,0,0,0,.1-.63s0-.05,0-.08a.13.13,0,0,1,0-.09.11.11,0,0,0,0-.08.78.78,0,0,1,0-.16.89.89,0,0,1,0-.15.19.19,0,0,1,0,.09s0-.06-.06-.07l0-.11s0-.07,0-.11v0s0,0,0,0a.14.14,0,0,1-.08-.2.57.57,0,0,0,0-.25s0-.09,0-.1a.15.15,0,0,0,.09-.06.36.36,0,0,1,0-.14s0-.09-.06-.12,0,0,0,0a.11.11,0,0,1,0-.06.28.28,0,0,0,.13-.2,1.21,1.21,0,0,1,0-.19s0,0,0,0,0,0,0,0a.07.07,0,0,1,0,0l.05-.07a1.42,1.42,0,0,0,0-.16s0-.08,0-.12a.51.51,0,0,0,.14-.21.85.85,0,0,0,0-.23l.06,0h0v-.1l0-.1-.11,0v-.06a.13.13,0,0,1,0-.06.08.08,0,0,1,0,0l0-.05a.32.32,0,0,0,.07-.18l-.12.08a.21.21,0,0,1,0-.12.36.36,0,0,1,.09-.08l-.07-.11.13,0a.49.49,0,0,1,0-.2.13.13,0,0,0-.06-.18l.12-.12.11-.12-.11-.1c-.08-.1-.06-.2.06-.32a.32.32,0,0,0,.12-.25,1.36,1.36,0,0,1,0-.35v-.16a.34.34,0,0,1,.07-.17h1a.74.74,0,0,1,.21,0,.43.43,0,0,0,.23-.07.71.71,0,0,0,.35,0,.53.53,0,0,1,.12,0h.14a1.26,1.26,0,0,0,.27,0,.57.57,0,0,1,.26,0,.38.38,0,0,0,.18,0l.18-.09a.42.42,0,0,1,.29-.05.3.3,0,0,0,.26,0s0,0,0,0,0,0,0,.07,0,.08.1.07a.79.79,0,0,1,.22,0,.16.16,0,0,1,.15.12Zm-4.61,3.53c0,.09,0,.14,0,.15s.06,0,0,.08h.05a.36.36,0,0,0,0-.1,1.17,1.17,0,0,1,0-.11Zm.64,2h0a.46.46,0,0,0,0-.1h0a.26.26,0,0,1,0,.11Zm0-.37c.06,0,0,.08,0,.15s0-.06,0-.09A.13.13,0,0,1,162,75.44Zm-.27-2.3,0,0a0,0,0,0,0,0,0v0a0,0,0,0,0,0,0v0Zm.68,2a.15.15,0,0,0-.05.08s0,0,0,0a.3.3,0,0,1,0-.12ZM161.92,72a.11.11,0,0,0,0,0,.11.11,0,0,1,0,0,.11.11,0,0,0,0,0A.11.11,0,0,1,161.92,72Zm.55,2.31a1.78,1.78,0,0,1,0,.2A1.78,1.78,0,0,0,162.47,74.32Zm.07-.23h0Zm0-.07a.41.41,0,0,1,0-.1A.41.41,0,0,0,162.53,74Zm2.93-3.23v0h0Z"/><path class="cls-1" d="M173.3,80.69s0,0,0,.07a.37.37,0,0,1,0,.11,4.46,4.46,0,0,1-.07.51c0,.16-.07.33-.1.5a.73.73,0,0,1-.08.22l-.14.1h-.24a.4.4,0,0,1-.22-.06.25.25,0,0,0-.15,0h-1.11a.39.39,0,0,0-.2.12.19.19,0,0,1,0-.1l-.33,0-.32,0s0,0-.05,0,0,0-.05,0a.19.19,0,0,0-.16,0s-.09,0-.13-.08l-.06,0h-.21l-.13,0-.12.05a1.34,1.34,0,0,1-.26.09l-.26.1a.71.71,0,0,1-.32.08l-.3,0a.41.41,0,0,0-.22,0,.49.49,0,0,0-.23.14.41.41,0,0,1-.23.11.83.83,0,0,1-.67-.15.41.41,0,0,0-.25-.08,1,1,0,0,0-.32.07l-.25.1-.27.09c-.08,0-.14,0-.17,0a4.11,4.11,0,0,1-.2-.62c0-.05,0-.1.09-.16a.86.86,0,0,0,.22-.54,1.3,1.3,0,0,1,.18-.58l0,.07,0,.07c0-.1,0-.19,0-.25s.08-.34.11-.5.07-.33.12-.5a.81.81,0,0,1,.06-.13.18.18,0,0,0,0-.13.17.17,0,0,1,.06-.16l.16-.11a.75.75,0,0,0,0,.16s.07,0,.17,0a.34.34,0,0,0,.08-.19,1.09,1.09,0,0,0,0-.18,1.21,1.21,0,0,1,.46-1.14h.06l.21-.5a4,4,0,0,0,.15-.52s0-.08.05-.14a.7.7,0,0,0,.12-.19.44.44,0,0,0-.09-.15.31.31,0,0,0,.15-.27,1.54,1.54,0,0,1,.08-.46,4.16,4.16,0,0,0,.12-.44.28.28,0,0,1,.08-.12.53.53,0,0,1,.14-.12,1.48,1.48,0,0,1-.06.37l.1-.09a.57.57,0,0,0,.11-.11l.07-.1a.07.07,0,0,0,0-.08.37.37,0,0,1,0-.31,2.75,2.75,0,0,0,.14-.3c0-.07.05-.14.07-.2a.52.52,0,0,1,.15.13,1.29,1.29,0,0,1,.06-.25,2.22,2.22,0,0,1,.09-.28l-.08-.08-.1-.11a2.12,2.12,0,0,0,.11-.21,1,1,0,0,1,.15-.22.53.53,0,0,0,.11-.21c0-.07,0-.15.07-.23a.41.41,0,0,1,.11.07l.12.06a.43.43,0,0,0,.13-.22l.06-.26-.14.08-.14.08a2.4,2.4,0,0,1,.3-.58.24.24,0,0,0,0,.08.64.64,0,0,1,0,.09.64.64,0,0,0,.12-.29.28.28,0,0,1,.14-.24l0-.52.1,0a.14.14,0,0,0,.09,0l.05-.08s0-.11.08-.24l-.15,0,.39-1c.13-.33.27-.66.42-1a.74.74,0,0,1-.46.1.71.71,0,0,0-.45.15c-.06,0-.1,0-.13,0a.93.93,0,0,0-.23,0,.52.52,0,0,0-.25.12.7.7,0,0,0-.33.07.63.63,0,0,1-.35.07.52.52,0,0,1-.36-.15,1.48,1.48,0,0,1-.29-.37,1,1,0,0,1-.11-.46,1.53,1.53,0,0,0-.11-.54,1.35,1.35,0,0,1-.11-.55.92.92,0,0,1,0-.26.51.51,0,0,1,.2-.19,1.15,1.15,0,0,1,.38-.15l.36,0h.07a.06.06,0,0,0,.07,0,.89.89,0,0,1,.37-.12,1.59,1.59,0,0,0,.35-.08,2.92,2.92,0,0,1,.46-.13,2.62,2.62,0,0,0,.45-.1l.43-.12.46-.12a3.74,3.74,0,0,1,.45-.12l.45-.09.16,0a.73.73,0,0,1,.33-.13h.31c.25,0,.39.13.4.42l0,.18.07,0,.07,0,.13-.08s.09,0,.13.06.18.1.34.08.14,0,.14,0a.67.67,0,0,0,0,.35.51.51,0,0,1-.07.38l-.3.67-.86,1.82a.16.16,0,0,1,0,.06s0,0,0,0a1.05,1.05,0,0,1-.15.43,2.78,2.78,0,0,0-.22.42c-.05.11-.09.21-.14.3a1.71,1.71,0,0,0-.09.3,1,1,0,0,1-.08.25l-.12.23,0,.08,0,.08c0,.1,0,.19-.05.28a.64.64,0,0,1-.1.24l-.24.45c-.13.32-.28.66-.45,1a.66.66,0,0,0-.1.25.55.55,0,0,1-.11.25,1.27,1.27,0,0,0-.13.22l-.11.23a.83.83,0,0,0-.07.13s0,.06.06.08,0,0,0,0l0,.05-.15.26c0,.09-.11.16-.16.24a1.06,1.06,0,0,0-.17.26l-.11.27a7.77,7.77,0,0,1-.55,1.25,1.42,1.42,0,0,0-.12.25c0,.09-.06.17-.09.25a1.49,1.49,0,0,1-.14.37,2.27,2.27,0,0,1-.19.34c-.05.11-.09.21-.14.3a.88.88,0,0,0-.08.3.42.42,0,0,1,0,.24,1.51,1.51,0,0,1-.12.26s.08,0,.09.08,0,.09.13,0l-.07,0a.06.06,0,0,0,0-.06.69.69,0,0,0,.2,0l.19,0a.42.42,0,0,0,0,.14s0,.06,0,.07l0,0s0,0,0,0a1.24,1.24,0,0,0,0-.23l.17,0s0,0,0,.07,0,.14.09.12a.09.09,0,0,1,.07,0h.08a.13.13,0,0,0,.1-.07c0-.07.05-.11.07-.12l.07,0h.33c.05,0,.08,0,.08.14s0,0,0,0,0,0,0,0l0-.17c0,.09,0,.14,0,.13s.06,0,0,.14,0,0,0,0,0,0,0-.06,0-.08,0-.06,0,0,0,0l.09-.15s0,0,.06,0,.06,0,.08,0a.13.13,0,0,1,.14,0,.39.39,0,0,0,.14,0s.06,0,.09.1.07.08.09.06a.76.76,0,0,0,.12-.19.3.3,0,0,0,.09.1c0,.06.08.05.17,0s.21-.15.26,0,.08.12.16,0a.17.17,0,0,1,.24,0,.24.24,0,0,0,.31.06.19.19,0,0,1,.18,0,1,1,0,0,1,.16.1,2.38,2.38,0,0,1,0,.26.57.57,0,0,1-.12.23s0,.08,0,.16a.21.21,0,0,1-.17,0l-.16,0a.65.65,0,0,0-.2,0,.61.61,0,0,1-.19,0c-.08,0-.13,0-.15-.07s-.11-.11-.2,0a.22.22,0,0,1-.14.08l-.12,0a.46.46,0,0,0-.14.14l.11,0a.14.14,0,0,1,.09,0,.3.3,0,0,0,.15.11h.08a.09.09,0,0,1,.07,0,.17.17,0,0,1,0,.1s0,.07,0,.08a.16.16,0,0,0,.09,0,.24.24,0,0,1,.12,0l0-.05a.08.08,0,0,1,0-.06.33.33,0,0,1,.11-.08l.08,0a.49.49,0,0,0,.23-.11.16.16,0,0,1,.18,0l.15.08Zm-6.78-.93h0l0,0Zm.62-1.32h0l0,0Zm2.38-5.35s0,0-.06.06a.17.17,0,0,0,.1,0l.08-.09c-.06,0-.09,0-.12,0Zm2.13,7.39H172s0,0,0-.06a.45.45,0,0,0-.16,0l-.15,0s0,0,0,0v.09Zm.21.06.17,0a.11.11,0,0,0-.13,0Zm1,.23c0,.09.06.08.13,0l-.09,0Zm-.14-1.22v0h0Zm-.9-9.9a.61.61,0,0,0,0,.12l-.05.12h.05a.61.61,0,0,0,0-.12l.05-.12Zm.37-1.17A2.82,2.82,0,0,0,172,69c-.05.19-.09.37-.13.55,0,0,0,0,0,0,.1-.22.21-.43.32-.65s.21-.42.32-.64a.65.65,0,0,0-.22,0,.71.71,0,0,0-.12.2Z"/><path class="cls-1" d="M131,89a1.64,1.64,0,0,1,0,.22,3.17,3.17,0,0,1,.12.41.79.79,0,0,0,.2.34l.16.16.27.29.29.26a1.2,1.2,0,0,0,.55.25c.21,0,.41.08.62.14a.28.28,0,0,0,.13,0l.29,0,.29-.06a1.67,1.67,0,0,0,.57-.19,3.7,3.7,0,0,0,.55-.36l.27-.19.27-.19a3.14,3.14,0,0,1,.31-.18,1,1,0,0,0,.29-.21c.25-.26.49-.54.72-.83l.68-.89a2.33,2.33,0,0,0,.37-.76,1.59,1.59,0,0,1,.13-.23,5,5,0,0,1,.32-.48,2.7,2.7,0,0,0,.27-.5c.17-.39.33-.78.48-1.16a5.76,5.76,0,0,0,.35-1.16.17.17,0,0,1,.05-.1,1.75,1.75,0,0,0,.22-.43l.12-.46a1.16,1.16,0,0,0,0-.18,1.36,1.36,0,0,1,0-.17.26.26,0,0,1,.1-.15.53.53,0,0,0,0,.14c.05-.22.09-.43.12-.64s.09-.41.14-.63a2.41,2.41,0,0,0,.07-.86c0-.16,0-.32-.05-.48a2.81,2.81,0,0,1-.05-.49c0-.09,0-.17,0-.25a.94.94,0,0,1,0-.28.33.33,0,0,0,0-.22.2.2,0,0,0-.15-.14.29.29,0,0,1-.14-.15l-.2-.36a1.24,1.24,0,0,0-.23-.32,4.1,4.1,0,0,0-.63-.68,1.46,1.46,0,0,0-.91-.3s-.06,0-.06,0a1.06,1.06,0,0,0-.66-.11c-.23,0-.47.07-.7.09,0,0-.07,0-.08,0a.33.33,0,0,1-.21.14h-.22a.89.89,0,0,0-.22.1l-.36.24-.36.24c-.19.14-.31.11-.35-.1a.31.31,0,0,1,0-.1.31.31,0,0,0,0-.1,2.63,2.63,0,0,0-.6.25,1.89,1.89,0,0,0-.53.46c-.13.16-.26.32-.37.48l-.35.51a4.6,4.6,0,0,0-.37.6c-.11.21-.22.42-.32.63a5.11,5.11,0,0,0-.22.48,1.89,1.89,0,0,0-.13.48H132l-.17.3a2.26,2.26,0,0,0-.17.35c-.07.23-.13.43-.18.62a2.93,2.93,0,0,1-.18.52,1.29,1.29,0,0,0-.11.53.61.61,0,0,1,0,.29.59.59,0,0,1-.2.28.12.12,0,0,0,0,0s0,0,0,0l-.06.34c0,.11,0,.22,0,.34a.41.41,0,0,0,0,.16.14.14,0,0,0,.08.12,1.8,1.8,0,0,0,.16-.21,1.77,1.77,0,0,0,0,.21c0,.07,0,.1,0,.11a.26.26,0,0,0-.15.18.46.46,0,0,1-.05.21.49.49,0,0,0,0,.24.6.6,0,0,1,0,.23l0,.47a.84.84,0,0,0,0,.34,2.09,2.09,0,0,0,0,.66l0,.56a5.21,5.21,0,0,0,0,.55l.06.32a.12.12,0,0,1,0,.1.12.12,0,0,0,0,.09A.28.28,0,0,1,131,89Zm3.57-11.52a0,0,0,0,1,0,0v0l-.06-.06Zm-1.21.78,0,0,0,0,0,0a1.2,1.2,0,0,0-.08.15v0Zm-.67,1.23h.07a.68.68,0,0,0-.11.25.32.32,0,0,1-.15.18c0-.06.06-.11.08-.16S132.67,79.53,132.71,79.45Zm-.32.77a.36.36,0,0,1,0,.09l0,0v0A.15.15,0,0,1,132.39,80.22Zm-.94,2.86h0a.15.15,0,0,0,0,.07h0A.15.15,0,0,1,131.45,83.08Zm.93,4.78-.07-.32-.14-.66c.16-.06.24-.15.23-.27a2.43,2.43,0,0,1,0-.47v-.47a.59.59,0,0,1,0-.34c.05.21.08.43.11.65s0,.46.07.7a.52.52,0,0,0,.1-.2.75.75,0,0,1,.05-.16l.2,1a.12.12,0,0,0,.05,0l0,0a.09.09,0,0,0,0-.06.06.06,0,0,1,0-.06c0-.16,0-.33,0-.5l0-.51a.8.8,0,0,1,.17.45.69.69,0,0,0,.16.45c.1-.08.13-.14.1-.2l-.09-.17a.75.75,0,0,1,.07-.12l.11-.15a1.65,1.65,0,0,0,.09.21l.1-.07c.1-.28.18-.56.25-.84A2.52,2.52,0,0,0,134,85c0-.21,0-.42,0-.65a3.62,3.62,0,0,1,.13-.69.08.08,0,0,1,0-.07,2.23,2.23,0,0,1,.07-.76,8,8,0,0,0,.17-.79,3.61,3.61,0,0,1,.25-.92q.19-.45.42-.93c.1-.22.21-.44.33-.65l.35-.64a2.26,2.26,0,0,1,.24-.34,1.56,1.56,0,0,1,.63.71l.14.22c0,.08.09.14.13.21a.75.75,0,0,1,.16.35,2.63,2.63,0,0,1,.07.42c0,.18,0,.36.08.53a4.46,4.46,0,0,1,.06.54,2.29,2.29,0,0,1,0,.25,2.33,2.33,0,0,0-.05.28c-.05.29-.1.58-.16.86l-.15.86c-.08.36-.17.71-.28,1.07s-.21.71-.31,1.07a1.65,1.65,0,0,1-.18.41q-.11.21-.18.39a4.32,4.32,0,0,1-.34.64c-.13.2-.25.4-.37.62a4.08,4.08,0,0,1-.28.44,4,4,0,0,1-.32.38l-.32.37a.73.73,0,0,1-.39-.26c-.1-.12-.19-.24-.29-.35a2.88,2.88,0,0,1-.47-1s0,0,0,0l0,0h0v0s0,0,0,0a.77.77,0,0,0,.07.2l-.13,0s0-.08.06-.19l-.05,0c-.07,0-.1,0-.11,0a.34.34,0,0,0-.05-.11c0-.13-.12-.32-.2-.55a1.05,1.05,0,0,0-.11.4.8.8,0,0,0,.06.3,2.11,2.11,0,0,0,.09.36,3.57,3.57,0,0,0,.1.35,1.53,1.53,0,0,0,0,.3c-.08,0-.13,0-.13,0l-.21-.31A.56.56,0,0,1,132.38,87.86Z"/></g></g></svg>